<svg width="39" height="16" viewBox="0 0 39 16" fill="none" xmlns="http://www.w3.org/2000/svg">
<path d="M8.89698 8.96233L3.50637 8.97678L3.51537 12.3654L9.88253 12.3484L9.88953 14.9851L0.0946407 15.0113L0.056906 0.792639L9.87132 0.766327L9.87835 3.4128L3.49165 3.42992L3.49961 6.42796L8.89021 6.41351L8.89698 8.96233ZM23.961 14.9474L20.5528 14.9565L15.4902 6.12238L15.5137 14.97L12.086 14.9792L12.0483 0.76049L15.476 0.751301L20.5287 9.58544L20.5053 0.737817L23.9232 0.728654L23.961 14.9474ZM38.9648 13.1493C38.439 13.7367 37.6688 14.2107 36.6541 14.5715C35.6395 14.9323 34.5267 15.1143 33.3157 15.1176C31.4538 15.1226 29.9646 14.5569 28.8483 13.4206C27.732 12.2842 27.1321 10.7006 27.0486 8.66952L27.0356 7.43908C27.0319 6.03935 27.276 4.81799 27.768 3.775C28.2601 2.7255 28.9643 1.91957 29.8808 1.35722C30.8037 0.788332 31.8707 0.502268 33.0816 0.499021C34.8525 0.494274 36.2272 0.89749 37.206 1.70867C38.1912 2.51332 38.7673 3.71947 38.9343 5.3271L35.6335 5.33595C35.5142 4.54199 35.2588 3.97627 34.8673 3.63878C34.4758 3.30128 33.922 3.1335 33.2058 3.13542C32.3464 3.13772 31.6834 3.50408 31.2165 4.2345C30.7497 4.96492 30.5149 6.00722 30.5119 7.3614L30.5142 8.22078C30.518 9.64004 30.7617 10.7071 31.2454 11.422C31.7355 12.1303 32.5015 12.483 33.5431 12.4802C34.435 12.4779 35.0986 12.2775 35.5337 11.8792L35.5279 9.67218L33.1451 9.67857L33.1388 7.32506L38.9493 7.30949L38.9648 13.1493Z" fill="white"/>
<path d="M8.89698 8.96233L8.89963 9.96232L9.89963 9.95964L9.89697 8.95965L8.89698 8.96233ZM3.50637 8.97678L3.50372 7.97678L2.50372 7.97946L2.50638 8.97946L3.50637 8.97678ZM3.51537 12.3654L2.51537 12.3681L2.51802 13.3681L3.51802 13.3654L3.51537 12.3654ZM9.88253 12.3484L10.8825 12.3457L10.8799 11.3457L9.87988 11.3484L9.88253 12.3484ZM9.88953 14.9851L9.89218 15.9851L10.8922 15.9824L10.8895 14.9824L9.88953 14.9851ZM0.0946407 15.0113L-0.905356 15.014L-0.902702 16.014L0.0972945 16.0113L0.0946407 15.0113ZM0.056906 0.792639L0.0542522 -0.207358L-0.945744 -0.204677L-0.94309 0.79532L0.056906 0.792639ZM9.87132 0.766327L10.8713 0.763646L10.8687 -0.236351L9.86867 -0.23367L9.87132 0.766327ZM9.87835 3.4128L9.881 4.4128L10.881 4.41012L10.8783 3.41012L9.87835 3.4128ZM3.49165 3.42992L3.489 2.42993L2.489 2.43261L2.49165 3.43261L3.49165 3.42992ZM3.49961 6.42796L2.49961 6.43064L2.50227 7.43064L3.50226 7.42796L3.49961 6.42796ZM8.89021 6.41351L9.89021 6.41083L9.88756 5.41083L8.88756 5.41351L8.89021 6.41351ZM8.89432 7.96233L3.50372 7.97678L3.50903 9.97678L8.89963 9.96232L8.89432 7.96233ZM2.50638 8.97946L2.51537 12.3681L4.51536 12.3628L4.50637 8.9741L2.50638 8.97946ZM3.51802 13.3654L9.88518 13.3484L9.87988 11.3484L3.51271 11.3654L3.51802 13.3654ZM8.88253 12.3511L8.88953 14.9878L10.8895 14.9824L10.8825 12.3457L8.88253 12.3511ZM9.88687 13.9851L0.0919868 14.0113L0.0972945 16.0113L9.89218 15.9851L9.88687 13.9851ZM1.09464 15.0087L1.0569 0.789958L-0.94309 0.79532L-0.905356 15.014L1.09464 15.0087ZM0.0595599 1.79264L9.87398 1.76632L9.86867 -0.23367L0.0542522 -0.207358L0.0595599 1.79264ZM8.87133 0.769008L8.87835 3.41548L10.8783 3.41012L10.8713 0.763646L8.87133 0.769008ZM9.87569 2.41281L3.489 2.42993L3.49431 4.42992L9.881 4.4128L9.87569 2.41281ZM2.49165 3.43261L2.49961 6.43064L4.4996 6.42528L4.49165 3.42724L2.49165 3.43261ZM3.50226 7.42796L8.89287 7.41351L8.88756 5.41351L3.49695 5.42796L3.50226 7.42796ZM7.89022 6.41619L7.89698 8.96501L9.89697 8.95965L9.89021 6.41083L7.89022 6.41619ZM23.961 14.9474L23.9636 15.9474L24.9636 15.9447L24.961 14.9447L23.961 14.9474ZM20.5528 14.9565L19.6851 15.4537L19.9741 15.958L20.5554 15.9565L20.5528 14.9565ZM15.4902 6.12238L16.3579 5.62515L14.4802 2.34864L14.4902 6.12506L15.4902 6.12238ZM15.5137 14.97L15.5164 15.97L16.5164 15.9673L16.5137 14.9673L15.5137 14.97ZM12.086 14.9792L11.086 14.9819L11.0887 15.9819L12.0887 15.9792L12.086 14.9792ZM12.0483 0.76049L12.0456 -0.239506L11.0456 -0.236825L11.0483 0.763171L12.0483 0.76049ZM15.476 0.751301L16.344 0.254797L16.0552 -0.250256L15.4733 -0.248696L15.476 0.751301ZM20.5287 9.58544L19.6607 10.0819L21.5388 13.3655L21.5287 9.58276L20.5287 9.58544ZM20.5053 0.737817L20.5026 -0.262179L19.5026 -0.259498L19.5053 0.740498L20.5053 0.737817ZM23.9232 0.728654L24.9232 0.725973L24.9206 -0.274024L23.9206 -0.271343L23.9232 0.728654ZM23.9583 13.9474L20.5501 13.9565L20.5554 15.9565L23.9636 15.9474L23.9583 13.9474ZM21.4204 14.4593L16.3579 5.62515L14.6226 6.6196L19.6851 15.4537L21.4204 14.4593ZM14.4902 6.12506L14.5137 14.9727L16.5137 14.9673L16.4902 6.11969L14.4902 6.12506ZM15.5111 13.97L12.0833 13.9792L12.0887 15.9792L15.5164 15.97L15.5111 13.97ZM13.086 14.9765L13.0483 0.757809L11.0483 0.763171L11.086 14.9819L13.086 14.9765ZM12.0509 1.76049L15.4786 1.7513L15.4733 -0.248696L12.0456 -0.239506L12.0509 1.76049ZM14.6079 1.2478L19.6607 10.0819L21.3968 9.08894L16.344 0.254797L14.6079 1.2478ZM21.5287 9.58276L21.5053 0.735136L19.5053 0.740498L19.5288 9.58812L21.5287 9.58276ZM20.5079 1.73781L23.9259 1.72865L23.9206 -0.271343L20.5026 -0.262179L20.5079 1.73781ZM22.9232 0.731335L22.961 14.95L24.961 14.9447L24.9232 0.725973L22.9232 0.731335ZM38.9648 13.1493L39.7099 13.8163L39.9658 13.5304L39.9648 13.1466L38.9648 13.1493ZM27.0486 8.66952L26.0487 8.68014L26.0488 8.69539L26.0495 8.71063L27.0486 8.66952ZM27.0356 7.43908L26.0355 7.44176L26.0356 7.4497L27.0356 7.43908ZM27.768 3.775L28.6725 4.20163L28.6735 4.19945L27.768 3.775ZM29.8808 1.35722L30.4038 2.20955L30.4055 2.2085L29.8808 1.35722ZM37.206 1.70867L36.5678 2.47863L36.5734 2.48319L37.206 1.70867ZM38.9343 5.3271L38.937 6.32709L40.0433 6.32413L39.929 5.22373L38.9343 5.3271ZM35.6335 5.33595L34.6446 5.48456L34.7729 6.33826L35.6362 6.33594L35.6335 5.33595ZM31.2165 4.2345L32.0592 4.773L31.2165 4.2345ZM30.5119 7.3614L29.5119 7.35928L29.5119 7.36408L30.5119 7.3614ZM31.2454 11.422L30.4171 11.9824L30.4231 11.991L31.2454 11.422ZM35.5337 11.8792L36.2089 12.6168L36.5349 12.3185L36.5337 11.8765L35.5337 11.8792ZM35.5279 9.67218L36.5279 9.6695L36.5252 8.66951L35.5252 8.67219L35.5279 9.67218ZM33.1451 9.67857L32.1451 9.68125L32.1477 10.6812L33.1477 10.6786L33.1451 9.67857ZM33.1388 7.32506L33.1362 6.32507L32.1362 6.32775L32.1388 7.32775L33.1388 7.32506ZM38.9493 7.30949L39.9493 7.30681L39.9467 6.30681L38.9467 6.30949L38.9493 7.30949ZM38.2198 12.4823C37.8389 12.9078 37.2313 13.305 36.3191 13.6293L36.9892 15.5137C38.1063 15.1165 39.0392 14.5655 39.7099 13.8163L38.2198 12.4823ZM36.3191 13.6293C35.4236 13.9478 34.4247 14.1146 33.3131 14.1176L33.3184 16.1176C34.6286 16.1141 35.8554 15.9169 36.9892 15.5137L36.3191 13.6293ZM33.3131 14.1176C31.6711 14.122 30.4574 13.6316 29.5617 12.7198L28.135 14.1214C29.4718 15.4823 31.2364 16.1232 33.3184 16.1176L33.3131 14.1176ZM29.5617 12.7198C28.6631 11.805 28.124 10.4824 28.0478 8.62841L26.0495 8.71063C26.1402 10.9187 26.801 12.7635 28.135 14.1214L29.5617 12.7198ZM28.0486 8.6589L28.0355 7.42847L26.0356 7.4497L26.0487 8.68014L28.0486 8.6589ZM28.0356 7.4364C28.0322 6.15391 28.2558 5.08478 28.6725 4.20163L26.8636 3.34836C26.2962 4.5512 26.0316 5.92479 26.0356 7.44176L28.0356 7.4364ZM28.6735 4.19945C29.0893 3.31245 29.6669 2.66168 30.4038 2.20955L29.3578 0.504884C28.2617 1.17746 27.4308 2.13855 26.8626 3.35054L28.6735 4.19945ZM30.4055 2.2085C31.1536 1.74737 32.0356 1.50183 33.0843 1.49902L33.079 -0.500975C31.7058 -0.497294 30.4539 -0.170708 29.3561 0.505931L30.4055 2.2085ZM33.0843 1.49902C34.7123 1.49465 35.8287 1.86601 36.5678 2.47861L37.8441 0.938736C36.6258 -0.0710305 34.9927 -0.506106 33.079 -0.500975L33.0843 1.49902ZM36.5734 2.48319C37.3024 3.07861 37.7922 4.01097 37.9397 5.43046L39.929 5.22373C39.7424 3.42796 39.0799 1.94804 37.8385 0.934157L36.5734 2.48319ZM38.9317 4.3271L35.6309 4.33595L35.6362 6.33594L38.937 6.32709L38.9317 4.3271ZM36.6224 5.18733C36.4863 4.28159 36.1699 3.44136 35.5202 2.88133L34.2144 4.39622C34.3478 4.51118 34.5421 4.8024 34.6446 5.48456L36.6224 5.18733ZM35.5202 2.88133C34.8869 2.33537 34.0674 2.1331 33.2032 2.13542L33.2085 4.13541C33.7766 4.13389 34.0647 4.2672 34.2144 4.39622L35.5202 2.88133ZM33.2032 2.13542C32 2.13865 31.022 2.6819 30.3739 3.696L32.0592 4.773C32.3447 4.32627 32.6929 4.1368 33.2085 4.13541L33.2032 2.13542ZM30.3739 3.696C29.7623 4.65303 29.5151 5.9132 29.5119 7.35928L31.5119 7.36353C31.5147 6.10125 31.7372 5.27682 32.0592 4.773L30.3739 3.696ZM29.5119 7.36408L29.5142 8.22346L31.5142 8.21809L31.5119 7.35872L29.5119 7.36408ZM29.5142 8.22346C29.5182 9.72566 29.7712 11.0276 30.4171 11.9824L32.0736 10.8616C31.7522 10.3866 31.5178 9.55442 31.5142 8.21809L29.5142 8.22346ZM30.4231 11.991C31.1412 13.0287 32.2534 13.4837 33.5458 13.4802L33.5405 11.4803C32.7495 11.4824 32.3299 11.2319 32.0677 10.8529L30.4231 11.991ZM33.5458 13.4802C34.5628 13.4775 35.5156 13.2515 36.2089 12.6168L34.8585 11.1416C34.6816 11.3035 34.3072 11.4782 33.5405 11.4803L33.5458 13.4802ZM36.5337 11.8765L36.5279 9.6695L34.5279 9.67486L34.5337 11.8819L36.5337 11.8765ZM35.5252 8.67219L33.1424 8.67858L33.1477 10.6786L35.5305 10.6722L35.5252 8.67219ZM34.1451 9.67589L34.1388 7.32238L32.1388 7.32775L32.1451 9.68125L34.1451 9.67589ZM33.1415 8.32506L38.952 8.30948L38.9467 6.30949L33.1362 6.32507L33.1415 8.32506ZM37.9493 7.31217L37.9648 13.152L39.9648 13.1466L39.9493 7.30681L37.9493 7.31217Z" fill="black"/>
</svg>
