<svg width="245" height="52" viewBox="0 0 245 52" fill="none" xmlns="http://www.w3.org/2000/svg">
<path fill-rule="evenodd" clip-rule="evenodd" d="M10.7876 31.0949L8.41949 35.5813L8.45943 50.6312L0.759455 50.6519L0.629416 1.65204L8.32939 1.63139L8.38605 22.9813L18.4094 1.60437L26.1093 1.58373L15.4573 23.4524L26.2394 50.5836L18.3294 50.6048L10.7876 31.0949ZM37.0794 39.2845C37.0841 41.0578 37.4491 42.3051 38.1743 43.0265C38.8996 43.7479 39.8689 44.107 41.0822 44.1037C42.2956 44.1005 43.2629 43.7362 43.9843 43.011C44.7057 42.2857 45.0641 41.0364 45.0594 39.2631L44.9892 12.8032C44.9845 11.0298 44.6195 9.78247 43.8942 9.06107C43.169 8.33968 42.1997 7.98061 40.9864 7.98387C39.773 7.98712 38.8057 8.35138 38.0842 9.07665C37.3628 9.80192 37.0045 11.0512 37.0092 12.8245L37.0794 39.2845ZM29.3105 13.3352C29.3 9.36851 30.2952 6.32087 32.2963 4.19215C34.2973 2.06343 37.1878 0.994024 40.9678 0.98389C44.7478 0.973756 47.6439 2.02765 49.6562 4.14561C51.6685 6.26356 52.6799 9.30583 52.6904 13.2725L52.7581 38.7524C52.7686 42.7191 51.7733 45.7667 49.7723 47.8955C47.7713 50.0242 44.8808 51.0936 41.1008 51.1037C37.3208 51.1138 34.4247 50.06 32.4124 47.942C30.4001 45.824 29.3887 42.7818 29.3781 38.8151L29.3105 13.3352ZM65.315 14.9887L65.4092 50.4785L58.4792 50.4971L58.3492 1.49729L68.0092 1.47139L75.997 30.7801L75.9191 1.45019L82.7791 1.4318L82.9092 50.4316L74.9992 50.4528L65.315 14.9887ZM88.1503 13.1774C88.1398 9.21077 89.0767 6.16327 90.9611 4.03487C92.8454 1.90647 95.6776 0.837214 99.4576 0.82708C103.238 0.816946 106.075 1.871 107.971 3.98927C109.867 6.10754 110.82 9.14996 110.83 13.1166L110.834 14.6566L103.554 14.6761L103.549 12.6462C103.544 10.8728 103.203 9.62541 102.524 8.90389C101.845 8.18237 100.899 7.82324 99.6861 7.82649C98.4728 7.82975 97.5288 8.19394 96.854 8.91909C96.1793 9.64424 95.8443 10.8935 95.849 12.6668C95.8534 14.3468 96.2307 15.8274 96.9808 17.1088C97.7308 18.3901 98.6674 19.6009 99.7904 20.7413C100.913 21.8816 102.118 23.0217 103.405 24.1616C104.691 25.3015 105.896 26.5466 107.019 27.8969C108.143 29.2472 109.08 30.7847 109.832 32.5094C110.583 34.234 110.962 36.263 110.968 38.5964C110.978 42.563 110.018 45.6106 108.087 47.7391C106.156 49.8676 103.301 50.937 99.5206 50.9471C95.7406 50.9572 92.8795 49.9032 90.9372 47.7851C88.9949 45.6669 88.0185 42.6246 88.0079 38.6579L87.9999 35.6479L95.2799 35.6284L95.2892 39.1284C95.2939 40.9017 95.6589 42.1374 96.384 42.8355C97.1092 43.5335 98.0785 43.8809 99.2918 43.8777C100.505 43.8744 101.473 43.5218 102.194 42.8199C102.915 42.118 103.274 40.8803 103.269 39.107C103.265 37.427 102.887 35.9464 102.137 34.665C101.387 33.3837 100.451 32.1729 99.3277 31.0325C98.2047 29.8922 97 28.7521 95.7136 27.6122C94.4273 26.4723 93.2223 25.2272 92.0987 23.8769C90.9751 22.5266 90.0377 20.9891 89.2865 19.2644C88.5352 17.5397 88.1565 15.5108 88.1503 13.1774ZM113.829 1.34855L137.629 1.28474L137.647 8.28472L129.598 8.3063L129.709 50.3062L122.009 50.3268L121.898 8.32695L113.848 8.34853L113.829 1.34855ZM158.009 50.2303C157.915 49.9038 157.82 49.6008 157.726 49.321C157.632 49.0413 157.55 48.6915 157.479 48.2717C157.407 47.8519 157.359 47.3153 157.334 46.6621C157.309 46.0088 157.295 45.1922 157.293 44.2122L157.272 36.5122C157.266 34.2255 156.865 32.6166 156.07 31.6854C155.274 30.7542 153.989 30.291 152.216 30.2957L149.556 30.3028L149.609 50.2528L141.909 50.2734L141.779 1.27359L153.399 1.24244C157.412 1.23168 160.32 2.15721 162.121 4.01907C163.923 5.88092 164.829 8.70181 164.839 12.4818L164.849 16.3318C164.862 21.3718 163.191 24.6896 159.835 26.2853C161.797 27.0734 163.142 28.3647 163.871 30.1595C164.599 31.9542 164.966 34.1349 164.973 36.7015L164.993 44.2615C164.996 45.4748 165.046 46.5364 165.141 47.4461C165.237 48.3559 165.473 49.2769 165.849 50.2092L158.009 50.2303ZM149.497 8.25295L149.537 23.3029L152.547 23.2948C153.994 23.2909 155.125 22.9146 155.939 22.1657C156.754 21.4169 157.159 20.0625 157.154 18.1025L157.141 13.2725C157.136 11.4991 156.818 10.2167 156.186 9.42502C155.553 8.63338 154.561 8.23938 153.207 8.243L149.497 8.25295ZM178.059 1.17635L178.159 38.9762C178.164 40.7496 178.529 41.9852 179.254 42.6833C179.979 43.3814 180.948 43.7288 182.162 43.7255C183.375 43.7223 184.342 43.3697 185.064 42.6677C185.785 41.9658 186.144 40.7282 186.139 38.9548L186.039 1.15496L193.319 1.13544L193.418 38.4453C193.428 42.412 192.468 45.4595 190.537 47.5881C188.606 49.7166 185.75 50.7859 181.97 50.796C178.19 50.8062 175.329 49.7522 173.387 47.634C171.445 45.5159 170.468 42.4735 170.458 38.5069L170.359 1.197L178.059 1.17635ZM220.399 1.06284L244.199 0.999032L244.217 7.99901L236.167 8.02059L236.279 50.0204L228.579 50.0411L228.467 8.04123L220.417 8.06281L220.399 1.06284Z" fill="#1A1A1A"/>
</svg>
