<svg width="9" height="17" viewBox="0 0 9 17" fill="none" xmlns="http://www.w3.org/2000/svg">
<path d="M8.398 3.22905H5.746C5.25778 3.22905 4.862 3.632 4.862 4.12905V6.82905H8.398C8.49854 6.82678 8.5939 6.8744 8.65368 6.95674C8.71345 7.03908 8.73019 7.14586 8.69856 7.24305L8.0444 9.22305C7.98412 9.40478 7.81732 9.52763 7.62892 9.52905H4.862V16.2791C4.862 16.5276 4.66411 16.7291 4.42 16.7291H2.21C1.96589 16.7291 1.768 16.5276 1.768 16.2791V9.52905H0.442C0.19789 9.52905 0 9.32758 0 9.07905V7.27905C0 7.03052 0.19789 6.82905 0.442 6.82905H1.768V4.12905C1.768 2.14083 3.35112 0.529053 5.304 0.529053H8.398C8.64211 0.529053 8.84 0.730525 8.84 0.979053V2.77905C8.84 3.02758 8.64211 3.22905 8.398 3.22905Z" fill="#7B7B7B"/>
</svg>
