<svg width="19" height="17" viewBox="0 0 19 17" fill="none" xmlns="http://www.w3.org/2000/svg">
<path d="M18.796 2.96137C18.3103 3.61732 17.7232 4.18952 17.0574 4.65586C17.0574 4.82721 17.0574 4.99856 17.0574 5.17943C17.0628 8.29118 15.8351 11.2749 13.6498 13.4618C11.4644 15.6487 8.50415 16.8558 5.43257 16.8124C3.65683 16.8184 1.90382 16.4079 0.310872 15.6129C0.22498 15.575 0.169581 15.4889 0.169907 15.394V15.2893C0.169907 15.1526 0.279301 15.0417 0.414245 15.0417C2.15976 14.9835 3.84301 14.3707 5.22583 13.2901C3.64589 13.2579 2.22435 12.3103 1.57015 10.8531C1.53711 10.7735 1.5474 10.6822 1.5973 10.6123C1.64721 10.5423 1.72952 10.5037 1.81449 10.5104C2.29467 10.5593 2.77964 10.514 3.24293 10.3771C1.49881 10.0106 0.188305 8.54453 0.000750257 6.75017C-0.00591569 6.66409 0.0321828 6.58072 0.101282 6.53016C0.170382 6.47961 0.260494 6.46919 0.339065 6.50266C0.807109 6.71177 1.31236 6.8219 1.82389 6.82633C0.295629 5.81072 -0.364477 3.87899 0.216895 2.12364C0.276907 1.95307 0.421084 1.82707 0.596444 1.79193C0.771805 1.75679 0.952481 1.81771 1.07208 1.95229C3.13437 4.17462 5.96799 5.4989 8.97548 5.6459C8.89844 5.33466 8.86055 5.0148 8.8627 4.69393C8.89083 3.01147 9.91899 1.51269 11.4658 0.899275C13.0127 0.28586 14.7721 0.679209 15.9203 1.89517C16.703 1.7442 17.4597 1.478 18.1663 1.10504C18.2181 1.07232 18.2837 1.07232 18.3355 1.10504C18.3678 1.15747 18.3678 1.22396 18.3355 1.2764C17.9932 2.06995 17.415 2.73553 16.6815 3.18032C17.3239 3.1049 17.9549 2.95148 18.561 2.72338C18.6121 2.6882 18.6792 2.6882 18.7302 2.72338C18.773 2.74318 18.8049 2.78106 18.8176 2.82691C18.8303 2.87277 18.8224 2.92195 18.796 2.96137Z" fill="#7B7B7B"/>
</svg>
