<svg width="18" height="17" viewBox="0 0 18 17" fill="none" xmlns="http://www.w3.org/2000/svg">
<path fill-rule="evenodd" clip-rule="evenodd" d="M0 2.60367C0 1.55106 0.89543 0.697754 2 0.697754C2.53043 0.697754 3.03914 0.898555 3.41421 1.25598C3.78929 1.61341 4 2.09819 4 2.60367C4 3.65628 3.10457 4.50959 2 4.50959C0.89543 4.50959 0 3.65628 0 2.60367ZM17.5 10.6178C17.5345 8.55453 16.0574 6.74651 13.95 6.27229C12.5377 5.9825 11.0657 6.36251 10 7.29196V6.89172C10 6.62856 9.77614 6.41524 9.5 6.41524H7C6.72386 6.41524 6.5 6.62856 6.5 6.89172V16.4213C6.5 16.6845 6.72386 16.8978 7 16.8978H9.5C9.77614 16.8978 10 16.6845 10 16.4213V11.0466C9.9753 10.0896 10.6752 9.25379 11.66 9.06446C12.2463 8.96801 12.8473 9.12536 13.2996 9.49377C13.752 9.86219 14.0087 10.4034 14 10.9704V16.4213C14 16.6845 14.2239 16.8978 14.5 16.8978H17C17.2761 16.8978 17.5 16.6845 17.5 16.4213V10.6178ZM4 6.89187V16.4212C4 16.6844 3.77614 16.8977 3.5 16.8977H1C0.723858 16.8977 0.5 16.6844 0.5 16.4212V6.89187C0.5 6.62873 0.723858 6.41541 1 6.41541H3.5C3.77614 6.41541 4 6.62873 4 6.89187Z" fill="#7B7B7B"/>
</svg>
