<svg width="18" height="17" viewBox="0 0 18 17" fill="none" xmlns="http://www.w3.org/2000/svg">
<path fill-rule="evenodd" clip-rule="evenodd" d="M8.9003 0.781982C3.9848 0.781982 0 4.40848 0 8.88198C0 13.3555 3.9848 16.982 8.9003 16.982C13.8158 16.982 17.8006 13.3555 17.8006 8.88198C17.8006 6.73373 16.8629 4.67346 15.1938 3.15442C13.5246 1.63537 11.2608 0.781982 8.9003 0.781982ZM16.0204 8.88221C15.0011 8.60366 13.9428 8.46176 12.8786 8.46097C12.2454 8.46866 11.6142 8.52557 10.9917 8.63108C10.7692 8.13693 10.5378 7.65899 10.2886 7.18104C11.7523 6.51541 13.087 5.63712 14.2403 4.58069C15.3955 5.76603 16.0294 7.29776 16.0204 8.88221ZM9.67458 6.11175C10.9952 5.5089 12.1979 4.71265 13.2347 3.75482C11.9931 2.88165 10.4694 2.40615 8.90026 2.40222C8.32413 2.40434 7.75038 2.4696 7.19141 2.59661C8.11973 3.70688 8.95005 4.88226 9.67458 6.11175ZM5.89211 3.01758C6.85673 4.14995 7.71705 5.35282 8.46431 6.61394C6.901 7.16951 5.23848 7.45784 3.56022 7.46444C3.03378 7.45921 2.50797 7.42947 1.98486 7.37534C2.49059 5.45725 3.92878 3.85324 5.89211 3.01758ZM1.77979 8.57416V8.88196C1.78391 10.4802 2.43689 12.0207 3.61324 13.2074C4.99814 11.1578 7.15598 9.63735 9.68324 8.93056C9.49634 8.50937 9.28274 8.10437 9.06914 7.69937L9.06912 7.69934C7.31789 8.34194 5.44805 8.67459 3.55984 8.67946C2.96468 8.67758 2.37021 8.64242 1.77979 8.57416ZM4.61035 14.0414C5.83119 12.1188 7.81573 10.6954 10.1552 10.0645C10.781 11.6382 11.2255 13.2669 11.4814 14.9243C9.18074 15.748 6.57426 15.4162 4.61035 14.0495V14.0414ZM11.4722 9.78921C12.0402 11.2668 12.4631 12.7873 12.736 14.3329C14.3702 13.3832 15.5081 11.868 15.8867 10.1375C14.9166 9.8434 13.9009 9.69299 12.8784 9.69202C12.4078 9.6959 11.938 9.72837 11.4722 9.78921Z" fill="#7B7B7B"/>
</svg>
