<svg width="16" height="16" viewBox="0 0 16 16" fill="none" xmlns="http://www.w3.org/2000/svg">
<path fill-rule="evenodd" clip-rule="evenodd" d="M3.2 0.7771H12.8C14.5673 0.7771 16 2.09291 16 3.71605V9.59396C16 11.2171 14.5673 12.5329 12.8 12.5329H4.8C4.15884 12.5217 3.53946 12.7466 3.08 13.1574L0.68 15.3617C0.606662 15.4316 0.505695 15.4713 0.4 15.4719C0.179086 15.4719 0 15.3074 0 15.1045V3.71605C0 2.09291 1.43269 0.7771 3.2 0.7771ZM14.4 3.71606C14.4 2.90449 13.6837 2.24658 12.8 2.24658H3.2C2.31635 2.24658 1.60001 2.90449 1.60001 3.71606V12.4448L1.96801 12.1362C2.71961 11.4476 3.73841 11.0617 4.8 11.0635H12.8C13.6837 11.0635 14.4 10.4055 14.4 9.59397V3.71606Z" fill="#7B7B7B"/>
</svg>
