<!-- Generated by IcoMoon.io -->
<svg version="1.1" xmlns="http://www.w3.org/2000/svg" width="32" height="32" viewBox="0 0 32 32">
<title>Group-13</title>
<path fill="#efeef3" d="M4.211 0h23.579c2.325 0 4.211 1.885 4.211 4.211v23.579c0 2.325-1.885 4.211-4.211 4.211h-23.579c-2.325 0-4.211-1.885-4.211-4.211v-23.579c0-2.325 1.885-4.211 4.211-4.211z"></path>
<path fill="#0d0d0d" d="M13.212 20.801c0 0.068-0.078 0.122-0.177 0.122-0.112 0.010-0.19-0.044-0.19-0.122 0-0.068 0.078-0.122 0.177-0.122 0.102-0.010 0.19 0.044 0.19 0.122zM12.156 20.649c-0.024 0.068 0.044 0.146 0.146 0.166 0.088 0.034 0.19 0 0.211-0.068s-0.044-0.146-0.146-0.177c-0.088-0.024-0.187 0.010-0.211 0.078zM13.657 20.591c-0.098 0.024-0.166 0.088-0.156 0.166 0.010 0.068 0.098 0.112 0.2 0.088 0.098-0.024 0.166-0.088 0.156-0.156-0.010-0.064-0.102-0.109-0.2-0.098zM15.891 7.579c-4.71 0-8.312 3.576-8.312 8.285 0 3.766 2.37 6.988 5.756 8.122 0.435 0.078 0.587-0.19 0.587-0.411 0-0.211-0.010-1.372-0.010-2.085 0 0-2.377 0.509-2.876-1.012 0 0-0.387-0.988-0.944-1.243 0 0-0.778-0.533 0.054-0.523 0 0 0.845 0.068 1.311 0.876 0.744 1.311 1.99 0.934 2.475 0.71 0.078-0.543 0.299-0.92 0.543-1.144-1.898-0.211-3.813-0.486-3.813-3.752 0-0.934 0.258-1.402 0.801-2-0.088-0.221-0.377-1.131 0.088-2.306 0.71-0.221 2.343 0.917 2.343 0.917 0.679-0.19 1.409-0.289 2.132-0.289s1.453 0.098 2.132 0.289c0 0 1.633-1.141 2.343-0.917 0.465 1.178 0.177 2.085 0.088 2.306 0.543 0.601 0.876 1.070 0.876 2 0 3.277-2 3.538-3.898 3.752 0.312 0.268 0.577 0.778 0.577 1.575 0 1.144-0.010 2.56-0.010 2.839 0 0.221 0.156 0.489 0.587 0.411 3.396-1.127 5.698-4.35 5.698-8.115 0-4.71-3.82-8.285-8.53-8.285zM10.88 19.29c-0.044 0.034-0.034 0.112 0.024 0.177 0.054 0.054 0.132 0.078 0.177 0.034 0.044-0.034 0.034-0.112-0.024-0.177-0.054-0.054-0.132-0.078-0.177-0.034zM10.513 19.015c-0.024 0.044 0.010 0.099 0.078 0.132 0.054 0.034 0.122 0.024 0.146-0.024 0.024-0.044-0.010-0.099-0.078-0.132-0.068-0.020-0.122-0.010-0.146 0.024zM11.613 20.224c-0.054 0.044-0.034 0.146 0.044 0.211 0.078 0.078 0.177 0.088 0.221 0.034 0.044-0.044 0.024-0.146-0.044-0.211-0.075-0.078-0.177-0.088-0.221-0.034zM11.226 19.725c-0.054 0.034-0.054 0.122 0 0.2s0.146 0.112 0.19 0.078c0.054-0.044 0.054-0.132 0-0.211-0.048-0.078-0.136-0.112-0.19-0.068z"></path>
</svg>
