<svg width="28" height="28" viewBox="0 0 28 28" fill="none" xmlns="http://www.w3.org/2000/svg">
<path d="M21.5934 13.4064C21.3329 13.4665 21.1489 13.6988 21.1489 13.9656M21.5934 13.4064L21.6496 13.65M21.5934 13.4064C21.5933 13.4064 21.5932 13.4064 21.593 13.4065L21.6496 13.65M21.5934 13.4064C24.2485 12.789 26.1017 10.4561 26.1017 7.73096C26.1017 4.51494 23.4851 1.89828 20.2692 1.89828C17.5248 1.89828 15.1239 3.8465 14.5619 6.5284C14.5063 6.79432 14.2717 6.9848 14.0001 6.9848C13.7285 6.9848 13.4938 6.79432 13.4382 6.52841C12.8761 3.8465 10.4752 1.89828 7.7308 1.89828C4.51495 1.89828 1.89828 4.51494 1.89828 7.73096C1.89828 10.4561 3.7515 12.789 6.40659 13.4064L21.1489 13.9656M21.1489 13.9656C21.1489 14.2322 21.3328 14.4644 21.593 14.5247L21.6496 14.2812M21.1489 13.9656L21.6496 14.2812M21.6496 13.65C21.5029 13.6839 21.3989 13.8149 21.3989 13.9656C21.3989 14.1163 21.5029 14.2473 21.6496 14.2812M21.6496 13.65V14.2812M21.6496 14.2812C24.4181 14.9247 26.3517 17.3586 26.3517 20.2002C26.3517 23.5543 23.6231 26.2829 20.2692 26.2829C17.4067 26.2829 14.9035 24.2519 14.3173 21.454M21.6496 14.2812L21.5934 14.5248C24.2485 15.1421 26.1017 17.475 26.1017 20.2002C26.1017 23.4162 23.4851 26.0329 20.2692 26.0329C17.5248 26.0329 15.124 24.0847 14.562 21.4029M14.3173 21.454L14.562 21.4029M14.3173 21.454L14.5619 21.4028C14.562 21.4028 14.562 21.4029 14.562 21.4029M14.3173 21.454C14.2859 21.304 14.1534 21.1964 14.0001 21.1964C13.8467 21.1964 13.7142 21.304 13.6829 21.454M14.562 21.4029L13.4382 21.4027L13.6829 21.454M13.6829 21.454C13.0965 24.2519 10.5933 26.2829 7.7308 26.2829C4.37687 26.2829 1.64828 23.5543 1.64828 20.2002C1.64828 17.3586 3.58188 14.9247 6.35036 14.2812M13.6829 21.454L13.4382 21.4029C12.876 24.0847 10.4751 26.0329 7.7308 26.0329C4.51495 26.0329 1.89828 23.4162 1.89828 20.2002C1.89828 17.475 3.75159 15.142 6.40678 14.5247C6.40684 14.5247 6.4069 14.5247 6.40696 14.5247L6.35036 14.2812M6.35036 14.2812C6.49707 14.2473 6.60106 14.1163 6.60106 13.9656C6.60106 13.8149 6.49707 13.6839 6.35036 13.65V14.2812ZM27.25 7.73096C27.25 3.88143 24.1186 0.75 20.2692 0.75C17.5704 0.75 15.1516 2.32181 14.0001 4.66239C12.8484 2.32181 10.4294 0.75 7.7308 0.75C3.88142 0.75 0.75 3.88143 0.75 7.73096C0.75 10.4277 2.26822 12.8058 4.5914 13.9656C2.26822 15.1253 0.75 17.5034 0.75 20.2002C0.75 24.0497 3.88142 27.1812 7.7308 27.1812C10.4294 27.1812 12.8484 25.6093 14.0001 23.2688C15.1516 25.6093 17.5704 27.1812 20.2692 27.1812C24.1186 27.1812 27.25 24.0497 27.25 20.2002C27.25 17.5034 25.7318 15.1253 23.4086 13.9656C25.7318 12.8058 27.25 10.4277 27.25 7.73096Z" fill="#3DB370" stroke="#3DB370" stroke-width="0.5"/>
</svg>
