<svg width="16" height="16" viewBox="0 0 16 16" fill="none" xmlns="http://www.w3.org/2000/svg">
<path fill-rule="evenodd" clip-rule="evenodd" d="M4.78016 3.33333L6.00016 2H10.0002L11.2202 3.33333H13.3335C14.0668 3.33333 14.6668 3.93333 14.6668 4.66667V12.6667C14.6668 13.4 14.0668 14 13.3335 14H2.66683C1.9335 14 1.3335 13.4 1.3335 12.6667V4.66667C1.3335 3.93333 1.9335 3.33333 2.66683 3.33333H4.78016ZM4.66683 8.66667C4.66683 10.5067 6.16016 12 8.00016 12C9.84016 12 11.3335 10.5067 11.3335 8.66667C11.3335 6.82667 9.84016 5.33333 8.00016 5.33333C6.16016 5.33333 4.66683 6.82667 4.66683 8.66667ZM8.00015 10.8001C9.17835 10.8001 10.1335 9.84494 10.1335 8.66673C10.1335 7.48852 9.17835 6.5334 8.00015 6.5334C6.82194 6.5334 5.86681 7.48852 5.86681 8.66673C5.86681 9.84494 6.82194 10.8001 8.00015 10.8001Z" fill="#969696"/>
</svg>
