<!-- Generated by IcoMoon.io -->
<svg version="1.1" xmlns="http://www.w3.org/2000/svg" width="32" height="32" viewBox="0 0 32 32">
<title>Group-11</title>
<path fill="#efeef3" d="M4.211 0h23.579c2.325 0 4.211 1.885 4.211 4.211v23.579c0 2.325-1.885 4.211-4.211 4.211h-23.579c-2.325 0-4.211-1.885-4.211-4.211v-23.579c0-2.325 1.885-4.211 4.211-4.211z"></path>
<path fill="#0d0d0d" d="M16.007 11.683c-2.391 0-4.32 1.929-4.32 4.319s1.929 4.32 4.32 4.32 4.32-1.929 4.32-4.32c0-2.391-1.929-4.319-4.32-4.319zM16.007 18.811c-1.545 0-2.808-1.259-2.808-2.808s1.259-2.808 2.808-2.808 2.808 1.259 2.808 2.808c0 1.549-1.263 2.808-2.808 2.808zM21.51 11.507c0 0.56-0.451 1.008-1.008 1.008-0.56 0-1.008-0.451-1.008-1.008s0.451-1.008 1.008-1.008 1.008 0.451 1.008 1.008zM24.371 12.529c-0.064-1.35-0.372-2.545-1.361-3.53-0.985-0.985-2.18-1.293-3.53-1.361-1.391-0.079-5.56-0.079-6.951 0-1.346 0.064-2.541 0.372-3.53 1.357s-1.293 2.18-1.361 3.53c-0.079 1.391-0.079 5.56 0 6.951 0.064 1.35 0.372 2.545 1.361 3.53s2.18 1.293 3.53 1.361c1.391 0.079 5.56 0.079 6.951 0 1.35-0.064 2.545-0.372 3.53-1.361 0.985-0.985 1.293-2.18 1.361-3.53 0.079-1.391 0.079-5.556 0-6.947zM22.574 20.969c-0.293 0.737-0.861 1.305-1.602 1.602-1.109 0.44-3.741 0.338-4.966 0.338s-3.861 0.098-4.966-0.338c-0.737-0.293-1.305-0.861-1.602-1.602-0.44-1.109-0.338-3.741-0.338-4.966s-0.098-3.861 0.338-4.966c0.293-0.737 0.861-1.305 1.602-1.602 1.109-0.44 3.741-0.338 4.966-0.338s3.861-0.098 4.966 0.338c0.737 0.293 1.305 0.861 1.602 1.602 0.44 1.109 0.338 3.741 0.338 4.966s0.101 3.861-0.338 4.966z"></path>
</svg>
