<svg width="306" height="230" viewBox="0 0 306 230" fill="none" xmlns="http://www.w3.org/2000/svg">
<path d="M18.1304 87.8443C12.0104 90.4453 5.20194 97.7128 3.05994 106.893C0.382437 118.444 11.6279 123.34 12.5459 121.734C13.6169 119.821 10.5569 119.209 9.86844 113.242C9.02694 105.516 12.6224 96.7948 17.2124 93.0463C18.0539 92.3578 18.0539 93.3523 18.0539 95.1118C18.0539 98.4013 17.9009 127.548 17.9009 133.668C17.9009 141.93 17.5949 144.531 16.9829 147.055C16.3709 149.656 15.3764 151.416 16.1414 152.104C16.9829 152.869 20.5784 151.033 22.6439 148.126C25.1684 144.607 26.0099 140.476 26.1629 135.886C26.3159 130.378 26.3159 121.657 26.3159 116.761C26.3159 112.171 26.3924 98.8603 26.2394 90.8278C26.1629 88.8388 20.7314 86.7733 18.1304 87.8443ZM236.691 126.477C236.461 130.761 235.543 134.127 234.396 136.498C232.101 141.088 227.358 142.465 225.369 135.886C224.298 132.291 224.221 126.324 224.986 121.275C225.751 116.149 228.046 112.324 231.718 112.707C235.39 113.089 237.073 117.756 236.691 126.477ZM175.108 153.099C175.032 160.213 173.961 166.486 171.513 168.246C168.07 170.847 163.557 168.858 164.475 163.656C165.316 159.066 169.294 154.323 175.108 148.585C175.108 148.662 175.108 149.962 175.108 153.099ZM174.114 126.4C173.884 130.302 172.89 134.203 171.819 136.422C169.524 141.012 164.781 142.465 162.792 135.81C161.415 131.296 161.797 125.482 162.409 121.81C163.251 117.067 165.393 112.63 169.141 112.63C172.89 112.707 174.649 116.761 174.114 126.4ZM138.465 126.4C138.235 130.531 137.47 133.974 136.17 136.498C133.798 141.012 129.208 142.465 127.143 135.886C125.689 131.143 126.148 124.717 126.76 121.198C127.678 115.996 129.973 112.324 133.492 112.707C137.164 113.089 138.924 117.756 138.465 126.4ZM302.022 131.22C301.104 131.22 300.721 132.138 300.415 133.668C299.268 139.023 298.044 140.247 296.437 140.247C294.678 140.247 293.071 137.569 292.689 132.214C292.383 128.007 292.383 120.28 292.842 112.63C292.918 111.024 292.459 109.494 288.252 107.964C286.416 107.275 283.815 106.357 282.438 109.494C278.689 118.521 277.236 125.635 276.93 128.542C276.93 128.695 276.7 128.695 276.7 128.389C276.471 126.094 276.012 121.81 275.935 112.936C275.935 111.177 275.553 109.723 273.64 108.499C272.416 107.734 268.668 106.357 267.291 107.964C266.143 109.341 264.766 112.936 263.313 117.22C262.165 120.739 261.4 123.111 261.4 123.111C261.4 123.111 261.4 113.701 261.4 110.106C261.4 108.729 260.482 108.27 260.176 108.193C258.952 107.811 256.428 107.199 255.433 107.199C254.133 107.199 253.827 107.887 253.827 108.958C253.827 109.111 253.597 121.351 253.597 129.919C253.597 130.302 253.597 130.684 253.597 131.143C252.909 135.121 250.537 140.476 248.013 140.476C245.488 140.476 244.264 138.258 244.264 128.007C244.264 122.04 244.417 119.439 244.494 115.155C244.57 112.707 244.647 110.794 244.647 110.335C244.647 109.035 242.352 108.346 241.281 108.117C240.21 107.887 239.292 107.734 238.527 107.811C237.532 107.887 236.767 108.576 236.767 109.494C236.767 110.029 236.767 110.947 236.767 110.947C235.467 108.882 233.325 107.428 231.871 106.969C228.046 105.822 224.068 106.816 221.008 111.024C218.637 114.39 217.183 118.138 216.571 123.646C216.189 127.624 216.265 131.679 217.03 135.121C216.112 138.946 214.506 140.553 212.67 140.553C210.069 140.553 208.156 136.269 208.386 128.848C208.539 123.952 209.533 120.51 210.604 115.537C211.063 113.395 210.681 112.324 209.763 111.253C208.921 110.259 207.085 109.8 204.484 110.412C202.648 110.871 199.971 111.33 197.523 111.712C197.523 111.712 197.676 111.1 197.752 110.106C198.364 104.674 192.474 105.133 190.638 106.893C189.49 107.887 188.725 109.111 188.496 111.33C188.037 114.772 190.867 116.455 190.867 116.455C189.949 120.739 187.654 126.247 185.283 130.302C184.059 132.444 183.064 134.05 181.84 135.733C181.84 135.121 181.84 134.433 181.84 133.821C181.84 124.87 181.917 117.832 181.993 115.308C182.07 112.86 182.146 110.947 182.146 110.565C182.146 109.57 181.534 109.264 180.387 108.729C179.316 108.346 178.092 108.04 176.791 107.964C175.185 107.811 174.19 108.729 174.19 109.723C174.19 109.953 174.19 111.1 174.19 111.1C172.89 109.035 170.748 107.581 169.294 107.122C165.469 105.975 161.491 106.969 158.431 111.177C156.06 114.543 154.453 119.209 153.994 123.723C153.612 127.93 153.688 131.526 154.224 134.509C153.612 137.493 151.852 140.629 149.863 140.629C147.339 140.629 145.885 138.411 145.885 128.16C145.885 122.193 146.038 119.592 146.115 115.308C146.191 112.86 146.268 110.947 146.268 110.488C146.268 109.188 143.973 108.499 142.902 108.27C141.754 108.04 140.836 107.887 140.071 107.964C139.077 108.04 138.388 108.882 138.388 109.57V111.1C137.088 109.035 134.946 107.581 133.492 107.122C129.667 105.975 125.689 107.046 122.629 111.177C120.64 113.931 119.034 116.991 118.192 123.646C117.963 125.559 117.886 127.395 117.886 129.078C117.121 133.897 113.602 139.482 110.772 139.482C109.089 139.482 107.482 136.269 107.482 129.307C107.482 120.127 108.018 107.046 108.171 105.745C108.171 105.745 111.766 105.669 112.455 105.669C114.214 105.669 115.897 105.669 118.269 105.592C119.493 105.516 120.64 101.232 119.416 100.696C118.881 100.467 114.903 100.237 113.296 100.237C111.996 100.237 108.324 99.9313 108.324 99.9313C108.324 99.9313 108.63 91.2103 108.706 90.2923C108.783 89.5273 107.788 89.1448 107.253 88.9153C105.876 88.3033 104.652 88.0738 103.198 87.7678C101.209 87.3853 100.291 87.7678 100.062 89.4508C99.7559 92.0518 99.6794 99.6253 99.6794 99.6253C98.2259 99.6253 93.1004 99.3193 91.6469 99.3193C90.2699 99.3193 88.8164 105.286 90.6524 105.286C92.8709 105.363 96.6959 105.439 99.2204 105.516C99.2204 105.516 99.1439 118.827 99.1439 122.958C99.1439 123.417 99.1439 123.799 99.1439 124.258C97.7669 131.526 92.8709 135.427 92.8709 135.427C93.9419 130.608 91.7999 127.012 87.8984 123.952C86.4449 122.805 83.6144 120.663 80.4779 118.368C80.4779 118.368 82.3139 116.532 83.9204 112.936C85.0679 110.335 85.1444 107.428 82.3139 106.816C77.6474 105.745 73.8224 109.188 72.6749 112.86C71.7569 115.69 72.2924 117.756 73.9754 119.974C74.1284 120.127 74.2049 120.28 74.3579 120.433C73.2869 122.499 71.8334 125.176 70.6094 127.318C67.2434 133.209 64.6424 137.875 62.7299 137.875C61.1999 137.875 61.1999 133.132 61.1999 128.772C61.1999 124.947 61.5059 119.209 61.7354 113.319C61.8119 111.33 60.8174 110.259 59.2109 109.264C58.2164 108.652 56.0744 107.428 54.8504 107.428C53.0144 107.428 47.6594 107.658 42.6104 122.269C41.9984 124.105 40.6979 127.471 40.6979 127.471L40.7744 109.953C40.7744 109.57 40.5449 109.111 40.0859 108.882C39.2444 108.423 36.9494 107.505 34.9604 107.505C33.9659 107.505 33.5069 107.964 33.5069 108.805L33.3539 136.192C33.3539 138.258 33.4304 140.706 33.5834 141.777C33.8129 142.848 34.1189 143.689 34.5014 144.225C34.8839 144.76 35.4194 145.143 36.1844 145.296C36.9494 145.449 40.9274 145.984 41.1569 144.454C41.3864 142.618 41.3864 140.629 43.5284 133.285C46.8179 121.81 51.0254 116.149 53.0909 114.16C53.4734 113.778 53.8559 113.778 53.8559 114.39C53.7794 116.914 53.4734 123.187 53.2439 128.542C52.7084 142.848 55.3094 145.525 59.0579 145.525C61.8884 145.525 65.9429 142.695 70.2269 135.504C72.9044 131.067 75.5054 126.63 77.4179 123.493C78.7184 124.717 80.1719 126.018 81.6254 127.395C84.9914 130.608 86.1389 133.668 85.3739 136.575C84.8384 138.793 82.6964 141.088 78.8714 138.87C77.8004 138.258 77.2649 137.722 76.1939 136.957C75.5819 136.575 74.6639 136.422 74.1284 136.881C72.6749 137.952 71.9099 139.329 71.4509 141.012C70.9919 142.618 72.6749 143.536 74.3579 144.301C75.8114 144.99 78.9479 145.525 81.0134 145.602C88.8164 145.831 95.1659 141.853 99.5265 131.373C100.291 140.4 103.657 145.525 109.395 145.525C113.296 145.525 117.121 140.553 118.804 135.58C119.263 137.569 120.028 139.329 120.946 140.782C125.383 147.82 134.028 146.29 138.388 140.323C139.765 138.487 139.918 137.799 139.918 137.799C140.53 143.46 145.12 145.449 147.721 145.449C150.628 145.449 153.688 144.072 155.754 139.329C155.983 139.864 156.289 140.323 156.595 140.782C161.032 147.82 169.677 146.29 174.037 140.323C174.267 140.017 174.42 139.788 174.573 139.558L174.726 143.307C174.726 143.307 172.278 145.602 170.748 146.979C164.016 153.099 158.967 157.765 158.584 163.197C158.125 170.082 163.71 172.683 167.994 172.989C172.507 173.371 176.332 170.847 178.704 167.404C180.769 164.344 182.146 157.765 182.07 151.186C181.993 148.585 181.993 145.219 181.917 141.7C184.288 138.946 186.889 135.504 189.337 131.449C192.015 127.012 194.845 121.122 196.299 116.532C196.299 116.532 198.747 116.532 201.424 116.379C202.266 116.302 202.495 116.532 202.342 117.144C202.189 117.909 198.976 130.072 201.883 138.181C203.872 143.689 208.309 145.525 210.91 145.525C213.97 145.525 216.954 143.23 218.484 139.711C218.637 140.094 218.866 140.476 219.096 140.782C223.533 147.82 232.177 146.29 236.538 140.323C237.532 138.946 238.068 137.799 238.068 137.799C238.986 143.689 243.576 145.449 246.177 145.449C248.931 145.449 251.455 144.301 253.597 139.405C253.674 141.624 253.827 143.383 254.056 143.919C254.209 144.225 254.974 144.684 255.51 144.913C258.034 145.831 260.559 145.372 261.477 145.219C262.165 145.066 262.624 144.531 262.701 143.23C262.854 139.711 262.777 133.744 263.848 129.307C265.684 121.887 267.291 118.98 268.132 117.603C268.591 116.838 269.05 116.685 269.127 117.526C269.127 119.209 269.28 124.258 269.968 130.99C270.504 135.963 271.192 138.87 271.728 139.788C273.258 142.465 275.094 142.542 276.624 142.542C277.618 142.542 279.607 142.312 279.378 140.553C279.301 139.711 279.454 134.662 281.214 127.318C282.361 122.575 284.274 118.215 285.039 116.685C285.268 116.073 285.421 116.532 285.421 116.685C285.268 119.974 284.962 130.684 286.263 136.575C288.099 144.531 293.301 145.449 295.137 145.449C299.038 145.449 302.251 142.465 303.322 134.662C303.552 132.673 303.169 131.22 302.022 131.22Z" fill="white"/>
</svg>
