<svg width="300" height="74" viewBox="0 0 300 74" fill="none" xmlns="http://www.w3.org/2000/svg">
<path d="M118.18 26.9015H127.656V56.6648H118.18V26.9015Z" fill="white"/>
<path d="M129.634 26.9013H138.761V30.9706H138.935C141.144 27.7732 143.993 26.0295 148.12 26.0295C154.631 26.0295 158.467 30.6799 158.467 37.3069V56.6647H148.992V39.2254C148.992 36.0861 147.423 33.9351 144.342 33.9351C141.203 33.9351 139.11 36.5512 139.11 40.2134V56.6647H129.634V26.9013Z" fill="white"/>
<path d="M128.602 18.9385C128.602 15.7992 126.057 13.2546 122.918 13.2546C119.779 13.2546 117.234 15.7992 117.234 18.9385C117.234 22.0775 119.779 24.6221 122.918 24.6221C126.057 24.6221 128.602 22.0775 128.602 18.9385Z" fill="white"/>
<path d="M225.11 26.4715C224.84 26.4471 224.53 26.4363 224.167 26.4363C220.563 26.4363 218.121 28.0058 216.028 31.5518H215.854V26.9014H206.786V56.6644H216.261V43.2943C216.261 37.0993 219.692 34.2287 225.11 34.7295V26.4715Z" fill="white"/>
<path d="M271.61 37.888C267.831 37.1906 264.459 36.9 264.459 34.8073C264.459 32.9469 266.262 32.0751 268.587 32.0751C271.202 32.0751 273.005 32.8889 273.354 35.5631H282.073C281.608 29.6918 277.074 26.0293 268.645 26.0293C261.611 26.0293 255.798 29.2848 255.798 35.5631C255.798 42.5384 261.32 43.9337 266.494 44.8059C270.447 45.5035 274.051 45.7941 274.051 48.468C274.051 50.3865 272.249 51.4329 269.401 51.4329C266.543 51.4329 264.653 50.2238 264.073 47.7707H255.044C255.709 53.8892 261.08 57.5947 269.459 57.5947C277.249 57.5947 283.003 54.2232 283.003 47.7126C283.003 40.0971 276.841 38.7601 271.61 37.888Z" fill="white"/>
<path d="M239.809 32.7725C242.89 32.7725 245.099 35.0397 245.448 38.586H233.705C234.344 35.0397 236.205 32.7725 239.809 32.7725ZM240.332 50.735C236.437 50.735 234.228 48.2356 233.647 44.2244H255.039C255.097 38.179 253.354 33.0051 249.807 29.7499C247.25 27.4247 243.878 26.0294 239.634 26.0294C230.566 26.0294 224.346 32.8306 224.346 41.725C224.346 50.735 230.391 57.5367 240.216 57.5367C243.994 57.5367 247.017 56.5485 249.517 54.8045C252.133 53.0024 253.877 50.4447 254.516 47.7708H245.273C244.459 49.6309 242.832 50.735 240.332 50.735Z" fill="white"/>
<path d="M299.692 49.6461C299.253 49.6635 298.663 49.689 298.121 49.689C296.087 49.689 294.808 49.1074 294.808 46.7822V32.8306H299.692V26.9013H294.808V17.484H285.565V26.9013H282.657V32.8306H285.565V48.8168C285.565 55.2115 289.518 57.0133 295.041 57.0133C297.148 57.0133 298.74 56.8555 299.692 56.6699V49.6461Z" fill="white"/>
<path d="M175.389 49.6596C175.011 49.6743 174.575 49.689 174.167 49.689C172.133 49.689 170.854 49.1074 170.854 46.7822V32.8306H175.389V26.9013H170.854V17.484H161.611V26.9013H158.529V32.8306H161.611V48.8168C161.611 55.2115 165.564 57.0133 171.086 57.0133C172.955 57.0133 174.418 56.889 175.389 56.7315V49.6596Z" fill="white"/>
<path d="M196.029 38.5859C195.68 35.0398 193.47 32.7724 190.39 32.7724C186.785 32.7724 184.925 35.0398 184.286 38.5859H196.029ZM174.927 41.7249C174.927 32.8307 181.147 26.0296 190.215 26.0296C194.459 26.0296 197.831 27.4246 200.388 29.7498C203.934 33.0052 205.678 38.1788 205.62 44.2246H184.228C184.809 48.2354 187.018 50.7352 190.913 50.7352C193.412 50.7352 195.04 49.6308 195.854 47.7706H205.097C204.457 50.4445 202.714 53.0023 200.097 54.8047C197.598 56.5484 194.575 57.5366 190.797 57.5366C180.972 57.5366 174.927 50.7352 174.927 41.7249Z" fill="white"/>
<path d="M101.725 34.633C105.445 34.633 107.538 32.4239 107.538 29.1101C107.538 25.7969 105.387 23.7623 101.725 23.7623H94.4577V34.633H101.725ZM84.8647 15.1007H101.319C106.376 15.1007 110.097 16.4958 112.655 18.9374C115.329 21.4368 116.84 24.9831 116.84 29.1685C116.84 37.1324 111.318 42.7714 102.772 42.7714H94.4577V56.6647H84.8647V15.1007Z" fill="white"/>
<path d="M71.8572 37.1322C71.8572 56.89 55.8402 72.907 36.0824 72.907C16.3246 72.907 0.307617 56.89 0.307617 37.1322C0.307617 17.3741 16.3246 1.35742 36.0824 1.35742C55.8402 1.35742 71.8572 17.3741 71.8572 37.1322Z" fill="black"/>
<path d="M36.0824 1.35718C16.3246 1.35718 0.307617 17.3742 0.307617 37.132C0.307617 52.288 9.73724 65.2443 23.0452 70.4569C22.7325 67.6264 22.4498 63.2733 23.1692 60.1833C23.8193 57.3912 27.3642 42.4009 27.3642 42.4009C27.3642 42.4009 26.2941 40.2578 26.2941 37.0894C26.2941 32.1149 29.1774 28.4012 32.7674 28.4012C35.8196 28.4012 37.2938 30.6927 37.2938 33.4405C37.2938 36.51 35.3396 41.0991 34.3311 45.3519C33.4883 48.9126 36.1167 51.8164 39.6287 51.8164C45.9871 51.8164 50.8748 45.112 50.8748 35.4343C50.8748 26.8686 44.7199 20.8798 35.9314 20.8798C25.7522 20.8798 19.7774 28.5147 19.7774 36.405C19.7774 39.4798 20.9619 42.7768 22.4399 44.5692C22.7323 44.9235 22.7751 45.2337 22.688 45.5953C22.4164 46.7252 21.8129 49.1551 21.6944 49.6525C21.5384 50.3073 21.1759 50.4463 20.4979 50.1308C16.0299 48.051 13.2364 41.5185 13.2364 36.2715C13.2364 24.9865 21.4358 14.6226 36.8742 14.6226C49.2845 14.6226 58.9287 23.466 58.9287 35.2845C58.9287 47.6138 51.1548 57.5364 40.3648 57.5364C36.7396 57.5364 33.3317 55.6531 32.1651 53.4284C32.1651 53.4284 30.3713 60.2589 29.9364 61.9328C29.1287 65.0402 26.9484 68.9352 25.49 71.3114C28.8372 72.3478 32.3944 72.9067 36.0824 72.9067C55.8405 72.9067 71.8575 56.8897 71.8575 37.132C71.8575 17.3742 55.8405 1.35718 36.0824 1.35718Z" fill="white"/>
</svg>
