<svg width="290" height="204" viewBox="0 0 290 204" fill="none" xmlns="http://www.w3.org/2000/svg">
<mask id="mask0_14713_151" style="mask-type:alpha" maskUnits="userSpaceOnUse" x="0" y="1" width="290" height="202">
<path d="M0.0639648 1.00647H289.002V202.838H0.0639648V1.00647Z" fill="#FFFFFE"/>
</mask>
<g mask="url(#mask0_14713_151)">
<path fill-rule="evenodd" clip-rule="evenodd" d="M120.037 23.1018C129.363 13.3926 142.344 7.38016 156.685 7.38016C175.806 7.38016 192.377 18.0029 201.3 33.8307C209.221 30.2899 217.8 28.4618 226.476 28.4662C260.894 28.4662 288.832 56.6164 288.832 91.3527C288.832 126.089 260.894 154.239 226.476 154.239C222.27 154.239 218.169 153.816 214.154 153.018C206.346 166.933 191.421 176.387 174.425 176.387C167.505 176.401 160.674 174.831 154.454 171.798C146.54 190.388 128.11 203.454 106.652 203.454C84.2382 203.454 65.2235 189.326 57.8938 169.461C54.6316 170.15 51.3063 170.496 47.9722 170.494C21.3092 170.494 -0.254883 148.611 -0.254883 121.736C-0.254883 103.677 9.45427 87.9555 23.8587 79.4574C20.8028 72.4177 19.2298 64.824 19.2378 57.1497C19.2378 26.1314 44.4136 1.06177 75.4319 1.06177C93.5968 1.06177 109.85 9.71928 120.047 23.157" fill="#FFFFFE"/>
<path fill-rule="evenodd" clip-rule="evenodd" d="M41.8538 105.959C41.6721 106.433 41.9186 106.531 41.977 106.615C42.5198 107.008 43.0711 107.293 43.6235 107.613C46.5766 109.174 49.3598 109.631 52.2704 109.631C58.1979 109.631 61.884 106.476 61.884 101.399V101.299C61.884 96.6034 57.7199 94.8932 53.832 93.6716L53.3231 93.5069C50.3806 92.553 47.8418 91.7223 47.8418 89.789V89.6902C47.8418 88.033 49.329 86.8114 51.6235 86.8114C54.1729 86.8114 57.211 87.6602 59.155 88.7341C59.155 88.7341 59.7307 89.1059 59.94 88.5504C60.0537 88.2497 61.0448 85.5973 61.151 85.2998C61.2636 84.9886 61.066 84.7538 60.8631 84.6327C58.6324 83.273 55.5518 82.3488 52.365 82.3488L51.7733 82.3509C46.3451 82.3509 42.5528 85.6334 42.5528 90.3286V90.4295C42.5528 95.3797 46.7381 96.9944 50.6473 98.1097L51.2761 98.3052C54.123 99.1805 56.5875 99.9411 56.5875 101.938V102.038C56.5875 103.876 54.9835 105.246 52.4128 105.246C51.4132 105.246 48.2274 105.229 44.775 103.047C44.3576 102.804 44.1196 102.629 43.7977 102.432C43.6278 102.329 43.2029 102.143 43.018 102.7L41.8495 105.95L41.8538 105.959ZM128.637 105.95C128.455 106.424 128.702 106.523 128.762 106.607C129.303 107 129.857 107.285 130.409 107.604C133.362 109.166 136.145 109.623 139.056 109.623C144.983 109.623 148.669 106.468 148.669 101.39V101.29C148.669 96.5949 144.516 94.8847 140.617 93.6631L140.109 93.4984C137.166 92.5445 134.627 91.7138 134.627 89.7805V89.6817C134.627 88.0245 136.114 86.8029 138.409 86.8029C140.958 86.8029 143.986 87.6517 145.94 88.7256C145.94 88.7256 146.516 89.0974 146.726 88.5419C146.839 88.2412 147.831 85.5888 147.927 85.2913C148.041 84.9801 147.842 84.7453 147.64 84.6242C145.409 83.2645 142.329 82.3403 139.142 82.3403L138.549 82.3425C133.121 82.3425 129.329 85.6249 129.329 90.3201V90.421C129.329 95.3712 133.514 96.9859 137.423 98.1012L138.051 98.2967C140.908 99.172 143.362 99.9326 143.362 101.93V102.03C143.362 103.867 141.758 105.238 139.188 105.238C138.186 105.238 134.992 105.221 131.55 103.039C131.132 102.795 130.888 102.628 130.571 102.424C130.464 102.356 129.964 102.16 129.793 102.691L128.624 105.942L128.637 105.95ZM187.899 95.999C187.899 98.8671 187.364 101.13 186.316 102.734C185.271 104.317 183.692 105.092 181.494 105.092C179.295 105.092 177.723 104.323 176.692 102.744C175.654 101.151 175.131 98.8778 175.131 96.0096C175.131 93.1415 175.657 90.8895 176.692 89.3067C177.72 87.7345 179.284 86.9803 181.494 86.9803C183.703 86.9803 185.275 87.742 186.316 89.3067C187.37 90.8895 187.899 93.1415 187.899 96.0096V95.999ZM192.849 90.6877C192.362 89.0411 191.606 87.5964 190.597 86.3855C189.587 85.1745 188.313 84.1972 186.794 83.4961C185.286 82.7897 183.501 82.4338 181.483 82.4338C179.465 82.4338 177.691 82.7918 176.172 83.4961C174.663 84.2014 173.378 85.1745 172.369 86.3855C171.362 87.5964 170.605 89.0411 170.117 90.6877C169.633 92.3236 169.388 94.1082 169.388 96.0096C169.388 97.9111 169.633 99.6957 170.117 101.332C170.602 102.978 171.36 104.423 172.369 105.634C173.379 106.845 174.663 107.811 176.172 108.502C177.691 109.19 179.475 109.541 181.483 109.541C183.491 109.541 185.275 109.19 186.784 108.502C188.292 107.814 189.577 106.845 190.587 105.634C191.595 104.423 192.35 102.978 192.839 101.332C193.321 99.6957 193.566 97.9111 193.566 96.0096C193.566 94.1188 193.321 92.3236 192.839 90.6877H192.849ZM233.524 104.285C233.361 103.804 232.892 103.985 232.892 103.985C232.172 104.26 231.404 104.515 230.586 104.643C229.762 104.772 228.844 104.837 227.878 104.837C225.488 104.837 223.575 104.124 222.216 102.713C220.845 101.3 220.081 99.0265 220.091 95.9459C220.099 93.1415 220.776 91.0382 221.993 89.4236C223.193 87.8301 225.041 87.0016 227.485 87.0016C229.524 87.0016 231.086 87.2385 232.722 87.7505C232.722 87.7505 233.109 87.9194 233.295 87.4084C233.73 86.2081 234.05 85.3476 234.517 84.0304C234.649 83.6533 234.326 83.494 234.208 83.4483C233.566 83.1976 232.051 82.7865 230.904 82.6133C229.831 82.4497 228.588 82.3648 227.186 82.3648C225.104 82.3648 223.256 82.7206 221.673 83.426C220.09 84.1303 218.752 85.1044 217.689 86.3153C216.627 87.5263 215.82 88.971 215.278 90.6175C214.742 92.2534 214.471 94.0487 214.471 95.9501C214.471 100.051 215.575 103.375 217.764 105.808C219.952 108.251 223.245 109.483 227.537 109.483C230.075 109.483 232.678 108.97 234.548 108.23C234.548 108.23 234.905 108.058 234.749 107.642L233.528 104.285H233.524ZM242.185 93.2371C242.422 91.6437 242.859 90.3159 243.545 89.2855C244.572 87.7133 246.137 86.8529 248.336 86.8529C250.535 86.8529 251.99 87.7175 253.031 89.2855C253.722 90.3212 254.023 91.6968 254.136 93.2371L242.132 93.235L242.185 93.2371ZM258.863 89.7316C258.441 88.1488 257.397 86.5448 256.717 85.8118C255.634 84.654 254.582 83.836 253.53 83.3899C252.012 82.7443 250.379 82.4129 248.729 82.4158C246.636 82.4158 244.735 82.7695 243.195 83.4886C241.654 84.2131 240.358 85.1989 239.338 86.4311C238.32 87.6634 237.554 89.1187 237.065 90.7864C236.577 92.433 236.33 94.2388 236.33 96.1297C236.33 98.063 236.586 99.8582 237.09 101.484C237.598 103.119 238.417 104.553 239.522 105.743C240.627 106.944 242.04 107.878 243.739 108.537C245.428 109.19 247.479 109.529 249.826 109.522C254.67 109.506 257.22 108.428 258.261 107.843C258.447 107.739 258.622 107.56 258.403 107.042L257.309 103.972C257.141 103.515 256.678 103.68 256.678 103.68C255.478 104.129 253.778 104.934 249.794 104.923C247.192 104.919 245.269 104.151 244.058 102.947C242.826 101.715 242.21 99.9199 242.114 97.3704L258.898 97.3831C258.898 97.3831 259.34 97.3789 259.386 96.9476C259.404 96.7692 259.96 93.5059 258.885 89.7348L258.863 89.7316ZM108.021 93.2371C108.257 91.6437 108.695 90.3159 109.38 89.2855C110.409 87.7133 111.972 86.8529 114.171 86.8529C116.37 86.8529 117.825 87.7175 118.866 89.2855C119.556 90.3212 119.857 91.6968 119.971 93.2371L107.967 93.235L108.021 93.2371ZM124.698 89.7316C124.278 88.1488 123.232 86.5448 122.552 85.8118C121.469 84.654 120.417 83.836 119.366 83.3899C117.847 82.7443 116.214 82.4129 114.564 82.4158C112.471 82.4158 110.57 82.7695 109.03 83.4886C107.489 84.2131 106.193 85.1989 105.174 86.4311C104.157 87.6634 103.389 89.1187 102.9 90.7864C102.413 92.433 102.167 94.2388 102.167 96.1297C102.167 98.063 102.421 99.8582 102.928 101.484C103.436 103.119 104.256 104.553 105.35 105.743C106.455 106.944 107.868 107.878 109.567 108.537C111.256 109.19 113.296 109.529 115.654 109.522C120.498 109.506 123.047 108.428 124.088 107.843C124.273 107.739 124.45 107.56 124.23 107.042L123.136 103.972C122.967 103.515 122.504 103.68 122.504 103.68C121.303 104.129 119.604 104.934 115.62 104.923C113.028 104.919 111.095 104.151 109.884 102.947C108.652 101.715 108.035 99.9199 107.94 97.3704L124.724 97.3831C124.724 97.3831 125.166 97.3789 125.211 96.9476C125.229 96.7692 125.786 93.5059 124.71 89.7348L124.698 89.7316ZM71.7971 104.179C71.1395 103.654 71.0482 103.525 70.8304 103.184C70.4979 102.671 70.328 101.941 70.328 101.007C70.328 99.5406 70.8166 98.4783 71.8258 97.7666C71.8151 97.7688 73.2705 96.5131 76.691 96.5556C78.2134 96.5829 79.7324 96.7124 81.2375 96.9434V104.56H81.2396C81.2396 104.56 79.1151 105.018 76.7143 105.162C73.3044 105.367 71.796 104.181 71.8066 104.184L71.7971 104.179ZM78.4681 92.3873C77.7883 92.3374 76.9066 92.3129 75.855 92.3129C74.4209 92.3129 73.0293 92.4914 71.7333 92.8419C70.4268 93.1946 69.2476 93.7406 68.2385 94.4672C67.2265 95.1891 66.3942 96.1341 65.8059 97.2291C65.2121 98.3339 64.9093 99.6299 64.9093 101.096C64.9093 102.583 65.1674 103.868 65.6773 104.92C66.177 105.963 66.9292 106.865 67.8656 107.544C68.7972 108.222 69.9477 108.723 71.2755 109.02C72.5927 109.321 74.0799 109.473 75.7158 109.473C77.4367 109.473 79.1469 109.328 80.8041 109.049C82.2155 108.806 83.6215 108.532 85.0213 108.229C85.5801 108.1 86.2004 107.932 86.2004 107.932C86.6147 107.826 86.5828 107.383 86.5828 107.383L86.5733 92.0867C86.5733 88.7299 85.6767 86.2336 83.907 84.6933C82.1436 83.153 79.5623 82.3775 76.2161 82.3775C74.9627 82.3775 72.9337 82.5475 71.7227 82.7907C71.7227 82.7907 68.0685 83.5003 66.5601 84.6816C66.5601 84.6816 66.2287 84.8855 66.4092 85.3476L67.599 88.5344C67.7466 88.9477 68.1492 88.8064 68.1492 88.8064C68.1492 88.8064 68.2757 88.7565 68.4244 88.6683C71.6431 86.9155 75.7222 86.9686 75.7222 86.9686C77.528 86.9686 78.9302 87.3351 79.865 88.0522C80.7796 88.7543 81.246 89.8155 81.246 92.0463V92.7548C79.8119 92.5466 78.4841 92.4266 78.4841 92.4266L78.4681 92.3873ZM213.377 83.751C213.401 83.695 213.413 83.6347 213.414 83.5737C213.414 83.5127 213.402 83.4522 213.379 83.3959C213.355 83.3396 213.321 83.2886 213.277 83.246C213.233 83.2033 213.182 83.1699 213.125 83.1477C212.839 83.0393 211.415 82.7387 210.32 82.6707C208.217 82.539 207.049 82.8938 205.997 83.3654C204.958 83.8339 203.809 84.587 203.171 85.4581L203.169 83.4185C203.169 83.1381 202.971 82.9118 202.688 82.9118H198.396C198.118 82.9118 197.916 83.1381 197.916 83.4185V108.382C197.917 108.517 197.97 108.646 198.066 108.741C198.161 108.837 198.29 108.89 198.425 108.891H202.823C202.958 108.89 203.087 108.837 203.182 108.741C203.277 108.646 203.331 108.517 203.331 108.382V95.8471C203.331 94.1687 203.516 92.501 203.884 91.4493C204.247 90.4093 204.741 89.5797 205.35 88.9848C205.931 88.4103 206.641 87.984 207.421 87.742C208.154 87.5318 208.912 87.4253 209.674 87.4254C210.55 87.4254 211.511 87.6506 211.511 87.6506C211.834 87.6867 212.014 87.4892 212.123 87.1981C212.411 86.4322 213.228 84.1388 213.387 83.682" fill="black"/>
<path fill-rule="evenodd" clip-rule="evenodd" d="M172.302 72.2296C171.758 72.0653 171.205 71.934 170.645 71.8365C169.893 71.7109 169.131 71.6519 168.368 71.6602C165.337 71.6602 162.948 72.5164 161.271 74.2075C159.605 75.8859 158.472 78.4428 157.903 81.807L157.698 82.9426H153.894C153.894 82.9426 153.43 82.9234 153.333 83.4302L152.708 86.9144C152.664 87.248 152.808 87.4562 153.254 87.454H156.957L153.2 108.426C152.905 110.115 152.569 111.505 152.196 112.558C151.828 113.597 151.469 114.375 151.027 114.94C150.599 115.487 150.194 115.89 149.493 116.125C148.916 116.319 148.251 116.408 147.522 116.408C147.116 116.408 146.576 116.34 146.178 116.261C145.78 116.182 145.573 116.093 145.274 115.968C145.274 115.968 144.84 115.802 144.669 116.237C144.529 116.593 143.543 119.307 143.426 119.643C143.307 119.974 143.474 120.236 143.684 120.311C144.177 120.487 144.543 120.6 145.215 120.758C146.147 120.978 146.933 120.992 147.67 120.992C149.212 120.992 150.617 120.775 151.783 120.355C152.955 119.931 153.976 119.193 154.879 118.193C155.855 117.115 156.469 115.986 157.057 114.445C157.638 112.919 158.133 111.024 158.529 108.815L162.304 87.454H167.824C167.824 87.454 168.289 87.471 168.386 86.9664L169.011 83.4822C169.054 83.1486 168.912 82.9404 168.464 82.9426H163.106C163.133 82.8215 163.376 80.937 163.991 79.163C164.254 78.4056 164.748 77.7948 165.166 77.3752C165.557 76.9756 166.038 76.6761 166.569 76.502C167.152 76.322 167.759 76.2346 168.368 76.2428C168.872 76.2428 169.368 76.3034 169.745 76.382C170.264 76.4925 170.466 76.5509 170.602 76.5912C171.148 76.758 171.221 76.5966 171.328 76.3321L172.61 72.8138C172.741 72.4356 172.42 72.2763 172.302 72.2296ZM97.439 108.471C97.439 108.752 97.2393 108.98 96.9589 108.98H92.5154C92.2339 108.98 92.0342 108.752 92.0342 108.471V72.7065C92.0342 72.4271 92.2339 72.2009 92.5154 72.2009H96.9589C97.2393 72.2009 97.439 72.4271 97.439 72.7065V108.471Z" fill="black"/>
</g>
</svg>
