<svg width="40" height="40" fill="none" xmlns="http://www.w3.org/2000/svg"><path d="M17.469 17.469a3.492 3.492 0 0 1 2.562-1.063c1 0 1.844.354 2.532 1.063.708.687 1.062 1.531 1.062 2.531 0 1-.354 1.854-1.063 2.563-.687.687-1.53 1.03-2.53 1.03-1 0-1.855-.343-2.563-1.03C16.78 21.854 16.437 21 16.437 20c0-1 .344-1.844 1.032-2.531zm.906 4.187c.458.459 1.01.688 1.656.688.646 0 1.198-.23 1.657-.688.458-.458.687-1.01.687-1.656 0-.646-.23-1.198-.688-1.656a2.257 2.257 0 0 0-1.656-.688c-.646 0-1.198.23-1.656.688A2.258 2.258 0 0 0 17.687 20c0 .646.23 1.198.688 1.656zm5.969-5.968c.166.145.25.333.25.562 0 .23-.084.427-.25.594a.714.714 0 0 1-.563.25.811.811 0 0 1-.593-.25.811.811 0 0 1-.25-.594c0-.23.083-.417.25-.563a.811.811 0 0 1 .593-.25c.23 0 .417.084.563.25zM27 17.125c.02.563.031 1.52.031 2.875 0 1.354-.01 2.313-.031 2.875-.063 1.27-.448 2.26-1.156 2.969-.688.687-1.667 1.052-2.938 1.093-.562.042-1.52.063-2.875.063-1.354 0-2.312-.02-2.875-.063-1.27-.062-2.25-.437-2.937-1.125-.271-.25-.49-.541-.656-.875a5.128 5.128 0 0 1-.376-.968 5.634 5.634 0 0 1-.093-1.094c-.042-.563-.063-1.52-.063-2.875 0-1.354.021-2.323.063-2.906.062-1.25.437-2.219 1.125-2.907.687-.708 1.666-1.093 2.937-1.156.563-.02 1.521-.031 2.875-.031s2.313.01 2.875.031c1.271.063 2.25.448 2.938 1.156.708.688 1.093 1.667 1.156 2.938zm-1.5 7a3.4 3.4 0 0 0 .156-.625c.042-.27.073-.583.094-.938.02-.375.031-.677.031-.906v-3.312c0-.23-.01-.521-.031-.875a8.826 8.826 0 0 0-.094-.938 3.382 3.382 0 0 0-.156-.656 2.255 2.255 0 0 0-1.344-1.344 3.395 3.395 0 0 0-.656-.156 8.85 8.85 0 0 0-.938-.094c-.354-.02-.645-.031-.875-.031h-3.312c-.23 0-.531.01-.906.031-.354.021-.667.052-.938.094-.25.042-.458.094-.625.156a2.256 2.256 0 0 0-1.344 1.344 3.389 3.389 0 0 0-.156.656c-.041.25-.073.563-.094.938-.02.354-.03.646-.03.875v3.75c.02.312.04.583.062.812a8.251 8.251 0 0 0 .219 1.219c.27.646.718 1.094 1.343 1.344.167.062.375.114.625.156.271.042.584.073.938.094.375.02.666.031.875.031h3.343c.23 0 .521-.01.875-.031a8.85 8.85 0 0 0 .938-.094c.27-.042.49-.094.656-.156.646-.271 1.094-.719 1.344-1.344z" fill="#fff"/><circle opacity=".4" cx="20" cy="20" r="19.5" stroke="#fff"/></svg>