<!-- Generated by IcoMoon.io -->
<svg version="1.1" xmlns="http://www.w3.org/2000/svg" width="1097" height="1024" viewBox="0 0 1097 1024">
<title></title>
<g id="icomoon-ignore">
</g>
<path fill="#fff" d="M361.073 326.856c51.809-51.809 114.286-77.714 187.429-77.714s134.857 25.905 185.143 77.714c51.807 50.286 77.714 112 77.714 185.143s-25.907 135.619-77.714 187.429c-50.286 50.286-112 75.432-185.143 75.432s-135.619-25.147-187.429-75.432c-50.286-51.809-75.429-114.286-75.429-187.429s25.143-134.857 75.429-185.143zM427.359 633.143c33.524 33.524 73.905 50.286 121.143 50.286s87.619-16.762 121.143-50.286c33.524-33.524 50.286-73.905 50.286-121.143s-16.762-87.619-50.286-121.143c-33.524-33.524-73.905-50.286-121.143-50.286s-87.619 16.762-121.143 50.286c-33.524 33.524-50.286 73.905-50.286 121.143s16.762 87.619 50.286 121.143zM863.935 196.57c12.186 10.666 18.286 24.381 18.286 41.143s-6.1 31.238-18.286 43.429c-10.672 12.191-24.386 18.286-41.15 18.286-16.757 0-31.232-6.095-43.425-18.286s-18.286-26.666-18.286-43.429c0-16.762 6.093-30.476 18.286-41.143 12.193-12.191 26.668-18.286 43.425-18.286 16.764 0 30.479 6.095 41.15 18.286zM1058.217 301.713c1.521 41.143 2.282 111.238 2.282 210.286s-0.761 169.143-2.282 210.286c-4.571 92.95-32.761 165.332-84.568 217.147-50.293 50.278-121.907 76.946-214.861 79.996-41.143 3.050-111.238 4.571-210.286 4.571s-169.143-1.521-210.286-4.571c-92.952-4.571-164.571-32-214.857-82.286-19.809-18.286-35.809-39.621-48-64s-21.333-48.004-27.429-70.853c-4.571-22.864-6.857-49.525-6.857-80.004-3.048-41.143-4.571-111.238-4.571-210.286s1.524-169.905 4.571-212.571c4.571-91.429 32-162.286 82.286-212.571 50.286-51.809 121.905-80 214.857-84.571 41.143-1.524 111.238-2.286 210.286-2.286s169.143 0.762 210.286 2.286c92.954 4.571 164.568 32.762 214.861 84.571 51.807 50.286 79.996 121.905 84.568 214.857zM948.503 813.714c4.571-12.193 8.382-27.429 11.425-45.714 3.050-19.807 5.339-42.666 6.861-68.571 1.521-27.429 2.282-49.524 2.282-66.286s0-40.381 0-70.857c0-30.476 0-47.238 0-50.286 0-4.571 0-21.334 0-50.286 0-30.476 0-54.095 0-70.857s-0.761-38.095-2.282-64c-1.521-27.429-3.811-50.286-6.861-68.571-3.043-19.809-6.853-35.809-11.425-48-18.286-47.238-51.046-80-98.289-98.286-12.186-4.571-28.189-8.381-47.996-11.429-18.286-3.048-41.143-5.334-68.571-6.857-25.905-1.524-47.238-2.286-64-2.286-15.238 0-38.857 0-70.857 0-30.476 0-47.238 0-50.286 0s-19.809 0-50.286 0c-30.476 0-54.095 0-70.857 0s-38.857 0.762-66.286 2.286c-25.905 1.524-48.762 3.809-68.571 6.857-18.286 3.048-33.524 6.857-45.714 11.429-47.238 18.286-80 51.048-98.286 98.286-4.571 12.191-8.381 28.191-11.429 48-3.048 18.286-5.334 41.143-6.857 68.571-1.524 25.905-2.286 47.238-2.286 64 0 15.238 0 38.857 0 70.857 0 30.476 0 47.238 0 50.286 0 6.095 0 20.571 0 43.429 0 21.334 0 39.619 0 54.857 0 13.714 0 32 0 54.857 1.524 22.857 3.048 42.666 4.571 59.429 1.524 15.239 3.809 31.236 6.857 48s6.095 30.479 9.143 41.143c19.809 47.236 52.571 80.004 98.286 98.289 12.191 4.564 27.429 8.375 45.714 11.425 19.809 3.050 42.666 5.332 68.571 6.861 27.429 1.521 48.762 2.282 64 2.282 16.762 0 40.381 0 70.857 0 32 0 49.524 0 52.571 0 4.571 0 21.334 0 50.286 0 30.476 0 54.095 0 70.857 0s38.095-0.761 64-2.282c27.429-1.529 50.286-3.811 68.571-6.861 19.807-3.050 35.811-6.861 47.996-11.425 47.243-19.814 80.004-52.575 98.289-98.289z"></path>
</svg>
