<svg xmlns="http://www.w3.org/2000/svg" width="1097" height="1024"><path fill="#fff" d="M361.073 326.856c51.809-51.809 114.286-77.714 187.429-77.714s134.857 25.905 185.143 77.714c51.807 50.286 77.714 112 77.714 185.143s-25.907 135.619-77.714 187.429c-50.286 50.286-112 75.432-185.143 75.432s-135.619-25.147-187.429-75.432c-50.286-51.809-75.429-114.286-75.429-187.429s25.143-134.857 75.429-185.143zm66.286 306.287c33.524 33.524 73.905 50.286 121.143 50.286s87.619-16.762 121.143-50.286S719.931 559.238 719.931 512s-16.762-87.619-50.286-121.143-73.905-50.286-121.143-50.286-87.619 16.762-121.143 50.286S377.073 464.762 377.073 512s16.762 87.619 50.286 121.143zM863.935 196.57c12.186 10.666 18.286 24.381 18.286 41.143s-6.1 31.238-18.286 43.429c-10.672 12.191-24.386 18.286-41.15 18.286-16.757 0-31.232-6.095-43.425-18.286s-18.286-26.666-18.286-43.429c0-16.762 6.093-30.476 18.286-41.143 12.193-12.191 26.668-18.286 43.425-18.286 16.764 0 30.479 6.095 41.15 18.286zm194.282 105.143c1.521 41.143 2.282 111.238 2.282 210.286s-.761 169.143-2.282 210.286c-4.571 92.95-32.761 165.332-84.568 217.147-50.293 50.278-121.907 76.946-214.861 79.996-41.143 3.05-111.238 4.571-210.286 4.571s-169.143-1.521-210.286-4.571c-92.952-4.571-164.571-32-214.857-82.286-19.809-18.286-35.809-39.621-48-64s-21.333-48.004-27.429-70.853c-4.571-22.864-6.857-49.525-6.857-80.004-3.048-41.143-4.571-111.238-4.571-210.286s1.524-169.905 4.571-212.571c4.571-91.429 32-162.286 82.286-212.571 50.286-51.809 121.905-80 214.857-84.571C379.359.762 449.454 0 548.502 0s169.143.762 210.286 2.286c92.954 4.571 164.568 32.762 214.861 84.571 51.807 50.286 79.996 121.905 84.568 214.857zM948.503 813.714c4.571-12.193 8.382-27.429 11.425-45.714 3.05-19.807 5.339-42.666 6.861-68.571 1.521-27.429 2.282-49.524 2.282-66.286V390.857c0-16.762-.761-38.095-2.282-64-1.521-27.429-3.811-50.286-6.861-68.571-3.043-19.809-6.853-35.809-11.425-48-18.286-47.238-51.046-80-98.289-98.286-12.186-4.571-28.189-8.381-47.996-11.429-18.286-3.048-41.143-5.334-68.571-6.857-25.905-1.524-47.238-2.286-64-2.286H427.361c-16.762 0-38.857.762-66.286 2.286-25.905 1.524-48.762 3.809-68.571 6.857-18.286 3.048-33.524 6.857-45.714 11.429-47.238 18.286-80 51.048-98.286 98.286-4.571 12.191-8.381 28.191-11.429 48-3.048 18.286-5.334 41.143-6.857 68.571-1.524 25.905-2.286 47.238-2.286 64v274.286c1.524 22.857 3.048 42.666 4.571 59.429 1.524 15.239 3.809 31.236 6.857 48s6.095 30.479 9.143 41.143c19.809 47.236 52.571 80.004 98.286 98.289 12.191 4.564 27.429 8.375 45.714 11.425 19.809 3.05 42.666 5.332 68.571 6.861 27.429 1.521 48.762 2.282 64 2.282h244.571c16.762 0 38.095-.761 64-2.282 27.429-1.529 50.286-3.811 68.571-6.861 19.807-3.05 35.811-6.861 47.996-11.425 47.243-19.814 80.004-52.575 98.289-98.289z"/></svg>