<svg width="40" height="40" viewBox="0 0 40 40" fill="none" xmlns="http://www.w3.org/2000/svg">
<rect width="40" height="40" fill="#F5F5F5"/>
<g clip-path="url(#clip0_0_1)">
<path d="M39.9375 30.2343L38.1211 38.1093C37.8659 39.2226 36.8875 40.0015 35.7414 40.0015C16.0312 40 0 23.9687 0 4.25778C0 3.11247 0.778828 2.13278 1.89219 1.87888L9.76719 0.0624716C10.9141 -0.20331 12.0859 0.392003 12.5625 1.4781L16.1969 9.95466C16.6217 10.9531 16.3352 12.1164 15.4953 12.8023L11.2891 16.1797C13.9437 21.5875 18.3406 25.9843 23.75 28.6406L27.1937 24.4375C27.8725 23.5953 29.0445 23.3039 30.043 23.7363L38.5195 27.3699C39.5391 27.9062 40.2031 29.0937 39.9375 30.2343Z" fill="#7E5AFF"/>
</g>
<defs>
<clipPath id="clip0_0_1">
<rect width="40" height="40" fill="white"/>
</clipPath>
</defs>
</svg>
