<svg width="40" height="40" fill="none" xmlns="http://www.w3.org/2000/svg"><path fill="#F5F5F5" d="M0 0h40v40H0z"/><g clip-path="url(#a)"><path d="M39.938 30.234 38.12 38.11a2.428 2.428 0 0 1-2.38 1.892C16.031 40 0 23.97 0 4.258c0-1.146.779-2.125 1.892-2.38L9.767.063a2.452 2.452 0 0 1 2.796 1.416l3.634 8.477a2.445 2.445 0 0 1-.702 2.847L11.29 16.18A27.317 27.317 0 0 0 23.75 28.64l3.444-4.203a2.43 2.43 0 0 1 2.849-.7l8.477 3.633c1.02.536 1.683 1.724 1.417 2.864z" fill="#7E5AFF"/></g><defs><clipPath id="a"><path fill="#fff" d="M0 0h40v40H0z"/></clipPath></defs></svg>