<svg width="16" height="14" fill="none" xmlns="http://www.w3.org/2000/svg"><path d="M14.344 3.75c.02.083.031.219.031.406a9.324 9.324 0 0 1-.625 3.313 10.489 10.489 0 0 1-1.781 3c-.75.896-1.73 1.625-2.938 2.187-1.208.563-2.541.844-4 .844-1.833 0-3.51-.49-5.031-1.469.23.021.49.031.781.031 1.521 0 2.886-.468 4.094-1.406a3.17 3.17 0 0 1-1.938-.625 3.39 3.39 0 0 1-1.124-1.625c.208.021.406.031.593.031.292 0 .584-.03.875-.093a3.188 3.188 0 0 1-1.344-.625A3.475 3.475 0 0 1 1 6.594a3.24 3.24 0 0 1-.344-1.469v-.063c.459.271.948.417 1.469.438C1.145 4.833.656 3.917.656 2.75c0-.583.156-1.135.469-1.656a9.098 9.098 0 0 0 6.75 3.437c-.042-.25-.063-.5-.063-.75 0-.896.313-1.666.938-2.312C9.396.823 10.167.5 11.063.5c.958 0 1.76.344 2.406 1.031A6.675 6.675 0 0 0 15.563.75c-.25.77-.73 1.375-1.438 1.813A7.049 7.049 0 0 0 16 2.03a7.213 7.213 0 0 1-1.656 1.719z" fill="#fff"/></svg>