<svg width="135" height="13" viewBox="0 0 135 13" fill="none" xmlns="http://www.w3.org/2000/svg">
<path d="M5.976 7.19995C6.06667 7.37062 6.14933 7.54929 6.224 7.73595C6.304 7.91729 6.38133 8.10129 6.456 8.28796C6.53067 8.09596 6.608 7.90662 6.688 7.71995C6.768 7.53329 6.85333 7.35462 6.944 7.18395L10.368 0.775954C10.4107 0.695954 10.4533 0.631955 10.496 0.583955C10.544 0.535954 10.5947 0.501288 10.648 0.479955C10.7067 0.458621 10.7707 0.445288 10.84 0.439955C10.9093 0.434621 10.992 0.431954 11.088 0.431954H12.712V12H10.816V4.52796C10.816 4.38929 10.8187 4.23729 10.824 4.07195C10.8347 3.90662 10.848 3.73862 10.864 3.56796L7.368 10.128C7.288 10.2773 7.184 10.3946 7.056 10.48C6.928 10.56 6.77867 10.6 6.608 10.6H6.312C6.14133 10.6 5.992 10.56 5.864 10.48C5.736 10.3946 5.632 10.2773 5.552 10.128L2.008 3.54395C2.02933 3.71995 2.04267 3.89329 2.048 4.06395C2.05867 4.22929 2.064 4.38396 2.064 4.52796V12H0.167999V0.431954H1.792C1.888 0.431954 1.97067 0.434621 2.04 0.439955C2.10933 0.445288 2.17067 0.458621 2.224 0.479955C2.28267 0.501288 2.336 0.535954 2.384 0.583955C2.432 0.631955 2.47733 0.695954 2.52 0.775954L5.976 7.19995Z" fill="black"/>
<path d="M33.211 12H31.547C31.3603 12 31.2057 11.9546 31.083 11.864C30.9657 11.768 30.8803 11.6506 30.827 11.512L29.963 9.15195H25.171L24.307 11.512C24.2643 11.6346 24.179 11.7466 24.051 11.848C23.9283 11.9493 23.7763 12 23.595 12H21.923L26.467 0.431954H28.667L33.211 12ZM25.723 7.63196H29.411L28.003 3.78395C27.939 3.61329 27.867 3.41329 27.787 3.18396C27.7123 2.94929 27.6377 2.69596 27.563 2.42395C27.4883 2.69596 27.4137 2.94929 27.339 3.18396C27.2697 3.41862 27.2003 3.62395 27.131 3.79995L25.723 7.63196Z" fill="black"/>
<path d="M43.5304 0.431954C43.6264 0.431954 43.7064 0.437288 43.7704 0.447954C43.8344 0.453288 43.8904 0.469288 43.9384 0.495955C43.9917 0.517288 44.0424 0.551955 44.0904 0.599955C44.1384 0.642621 44.1917 0.701288 44.2504 0.775954L50.3224 8.51196C50.301 8.32529 50.285 8.14396 50.2744 7.96796C50.269 7.78662 50.2664 7.61862 50.2664 7.46395V0.431954H52.1624V12H51.0504C50.8797 12 50.7384 11.9733 50.6264 11.92C50.5144 11.8666 50.405 11.7706 50.2984 11.632L44.2504 3.92795C44.2664 4.09862 44.277 4.26929 44.2824 4.43995C44.293 4.60529 44.2984 4.75729 44.2984 4.89595V12H42.4024V0.431954H43.5304Z" fill="black"/>
<path d="M64.9201 12H62.7601V0.431954H64.9201V12Z" fill="black"/>
<path d="M82.8234 0.431954V2.14395H77.6954V5.56796H82.0234V7.28795H77.6954V12H75.5274V0.431954H82.8234Z" fill="black"/>
<path d="M99.8077 0.431954V2.14395H94.6797V5.35195H98.7197V7.00796H94.6797V10.28H99.8077V12H92.5117V0.431954H99.8077Z" fill="black"/>
<path d="M115.868 2.53595C115.809 2.65329 115.74 2.73595 115.66 2.78395C115.585 2.83195 115.495 2.85596 115.388 2.85596C115.281 2.85596 115.161 2.81595 115.028 2.73595C114.895 2.65062 114.737 2.55729 114.556 2.45595C114.375 2.35462 114.161 2.26395 113.916 2.18395C113.676 2.09862 113.391 2.05595 113.06 2.05595C112.761 2.05595 112.5 2.09329 112.276 2.16795C112.057 2.23729 111.871 2.33595 111.716 2.46395C111.567 2.59195 111.455 2.74662 111.38 2.92795C111.305 3.10395 111.268 3.29862 111.268 3.51195C111.268 3.78395 111.343 4.01062 111.492 4.19195C111.647 4.37329 111.849 4.52796 112.1 4.65595C112.351 4.78395 112.636 4.89862 112.956 4.99995C113.276 5.10129 113.601 5.21062 113.932 5.32795C114.268 5.43995 114.596 5.57329 114.916 5.72795C115.236 5.87729 115.521 6.06929 115.772 6.30396C116.023 6.53329 116.223 6.81596 116.372 7.15196C116.527 7.48796 116.604 7.89596 116.604 8.37596C116.604 8.89862 116.513 9.38929 116.332 9.84795C116.156 10.3013 115.895 10.6986 115.548 11.04C115.207 11.376 114.788 11.6426 114.292 11.84C113.796 12.032 113.228 12.128 112.588 12.128C112.22 12.128 111.857 12.0906 111.5 12.016C111.143 11.9466 110.799 11.8453 110.468 11.712C110.143 11.5786 109.836 11.4186 109.548 11.232C109.265 11.0453 109.012 10.8373 108.788 10.608L109.412 9.57596C109.471 9.50129 109.54 9.43996 109.62 9.39196C109.705 9.33862 109.799 9.31195 109.9 9.31195C110.033 9.31195 110.177 9.36795 110.332 9.47995C110.487 9.58662 110.668 9.70662 110.876 9.83996C111.089 9.97329 111.337 10.096 111.62 10.208C111.908 10.3146 112.252 10.368 112.652 10.368C113.265 10.368 113.74 10.224 114.076 9.93596C114.412 9.64262 114.58 9.22395 114.58 8.67995C114.58 8.37595 114.503 8.12795 114.348 7.93596C114.199 7.74396 113.999 7.58395 113.748 7.45596C113.497 7.32262 113.212 7.21062 112.892 7.11996C112.572 7.02929 112.247 6.93062 111.916 6.82396C111.585 6.71729 111.26 6.58929 110.94 6.43995C110.62 6.29062 110.335 6.09595 110.084 5.85596C109.833 5.61595 109.631 5.31729 109.476 4.95995C109.327 4.59729 109.252 4.15195 109.252 3.62395C109.252 3.20262 109.335 2.79195 109.5 2.39195C109.671 1.99195 109.916 1.63729 110.236 1.32795C110.561 1.01862 110.959 0.770621 111.428 0.583955C111.897 0.397288 112.433 0.303955 113.036 0.303955C113.719 0.303955 114.348 0.410622 114.924 0.623955C115.5 0.837288 115.991 1.13595 116.396 1.51995L115.868 2.53595Z" fill="black"/>
<path d="M134.398 0.431954V2.19995H130.918V12H128.766V2.19995H125.27V0.431954H134.398Z" fill="black"/>
</svg>
