<svg width="38" height="14" viewBox="0 0 38 14" fill="none" xmlns="http://www.w3.org/2000/svg">
<path d="M5.40723 13H3.77246V2.16309L0.494141 3.36719V1.89062L5.15234 0.141602H5.40723V13ZM11.818 6.58398L12.4684 0.203125H19.025V1.70605H13.8482L13.4615 5.19531C14.0885 4.82617 14.8004 4.6416 15.5973 4.6416C16.7633 4.6416 17.6891 5.02832 18.3746 5.80176C19.0602 6.56934 19.4029 7.60938 19.4029 8.92188C19.4029 10.2402 19.0455 11.2803 18.3307 12.042C17.6217 12.7979 16.6285 13.1758 15.3512 13.1758C14.2203 13.1758 13.2975 12.8623 12.5826 12.2354C11.8678 11.6084 11.4605 10.7412 11.3609 9.63379H12.899C12.9986 10.3662 13.2594 10.9199 13.6812 11.2949C14.1031 11.6641 14.6598 11.8486 15.3512 11.8486C16.107 11.8486 16.6988 11.5908 17.1266 11.0752C17.5602 10.5596 17.777 9.84766 17.777 8.93945C17.777 8.08398 17.5426 7.39844 17.0738 6.88281C16.6109 6.36133 15.9928 6.10059 15.2193 6.10059C14.5104 6.10059 13.9537 6.25586 13.5494 6.56641L13.1187 6.91797L11.818 6.58398ZM37.2781 8.93945C37.1199 10.293 36.6189 11.3389 35.7752 12.0771C34.9373 12.8096 33.8211 13.1758 32.4266 13.1758C30.9148 13.1758 29.702 12.6338 28.7879 11.5498C27.8797 10.4658 27.4256 9.01562 27.4256 7.19922V5.96875C27.4256 4.7793 27.6365 3.7334 28.0584 2.83105C28.4861 1.92871 29.0896 1.2373 29.8689 0.756836C30.6482 0.270508 31.5506 0.0273438 32.576 0.0273438C33.9354 0.0273438 35.0252 0.408203 35.8455 1.16992C36.6658 1.92578 37.1434 2.97461 37.2781 4.31641H35.5818C35.4354 3.29688 35.116 2.55859 34.6238 2.10156C34.1375 1.64453 33.4549 1.41602 32.576 1.41602C31.4979 1.41602 30.6512 1.81445 30.0359 2.61133C29.4266 3.4082 29.1219 4.54199 29.1219 6.0127V7.25195C29.1219 8.64062 29.4119 9.74512 29.992 10.5654C30.5721 11.3857 31.3836 11.7959 32.4266 11.7959C33.3641 11.7959 34.0818 11.585 34.5799 11.1631C35.0838 10.7354 35.4178 9.99414 35.5818 8.93945H37.2781Z" fill="white"/>
</svg>
