<svg width="38" height="14" viewBox="0 0 38 14" fill="none" xmlns="http://www.w3.org/2000/svg">
<path d="M5.53223 13H3.89746V2.16309L0.619141 3.36719V1.89062L5.27734 0.141602H5.53223V13ZM19.4576 1.11719L14.1578 13H12.4527L17.735 1.53906H10.8092V0.203125H19.4576V1.11719ZM37.4031 8.93945C37.2449 10.293 36.7439 11.3389 35.9002 12.0771C35.0623 12.8096 33.9461 13.1758 32.5516 13.1758C31.0398 13.1758 29.827 12.6338 28.9129 11.5498C28.0047 10.4658 27.5506 9.01562 27.5506 7.19922V5.96875C27.5506 4.7793 27.7615 3.7334 28.1834 2.83105C28.6111 1.92871 29.2146 1.2373 29.9939 0.756836C30.7732 0.270508 31.6756 0.0273438 32.701 0.0273438C34.0604 0.0273438 35.1502 0.408203 35.9705 1.16992C36.7908 1.92578 37.2684 2.97461 37.4031 4.31641H35.7068C35.5604 3.29688 35.241 2.55859 34.7488 2.10156C34.2625 1.64453 33.5799 1.41602 32.701 1.41602C31.6229 1.41602 30.7762 1.81445 30.1609 2.61133C29.5516 3.4082 29.2469 4.54199 29.2469 6.0127V7.25195C29.2469 8.64062 29.5369 9.74512 30.117 10.5654C30.6971 11.3857 31.5086 11.7959 32.5516 11.7959C33.4891 11.7959 34.2068 11.585 34.7049 11.1631C35.2088 10.7354 35.5428 9.99414 35.7068 8.93945H37.4031Z" fill="white"/>
</svg>
