<svg width="38" height="14" viewBox="0 0 38 14" fill="none" xmlns="http://www.w3.org/2000/svg">
<path d="M5.40723 13H3.77246V2.16309L0.494141 3.36719V1.89062L5.15234 0.141602H5.40723V13ZM17.3023 7.375C16.9625 7.7793 16.5553 8.10449 16.0807 8.35059C15.6119 8.59668 15.0963 8.71973 14.5338 8.71973C13.7955 8.71973 13.151 8.53809 12.6002 8.1748C12.0553 7.81152 11.6334 7.30176 11.3346 6.64551C11.0357 5.9834 10.8863 5.25391 10.8863 4.45703C10.8863 3.60156 11.0475 2.83105 11.3697 2.14551C11.6979 1.45996 12.1607 0.935547 12.7584 0.572266C13.3561 0.208984 14.0533 0.0273438 14.8502 0.0273438C16.1158 0.0273438 17.1119 0.501953 17.8385 1.45117C18.5709 2.39453 18.9371 3.68359 18.9371 5.31836V5.79297C18.9371 8.2832 18.4449 10.1025 17.4605 11.251C16.4762 12.3936 14.9908 12.9795 13.0045 13.0088H12.6881V11.6377H13.0309C14.3727 11.6143 15.4039 11.2656 16.1246 10.5918C16.8453 9.91211 17.2379 8.83984 17.3023 7.375ZM14.7975 7.375C15.3424 7.375 15.8434 7.20801 16.3004 6.87402C16.7633 6.54004 17.1002 6.12695 17.3111 5.63477V4.98438C17.3111 3.91797 17.0797 3.05078 16.6168 2.38281C16.1539 1.71484 15.568 1.38086 14.859 1.38086C14.1441 1.38086 13.5699 1.65625 13.1363 2.20703C12.7027 2.75195 12.4859 3.47266 12.4859 4.36914C12.4859 5.24219 12.6939 5.96289 13.11 6.53125C13.5318 7.09375 14.0943 7.375 14.7975 7.375ZM37.2781 8.93945C37.1199 10.293 36.6189 11.3389 35.7752 12.0771C34.9373 12.8096 33.8211 13.1758 32.4266 13.1758C30.9148 13.1758 29.702 12.6338 28.7879 11.5498C27.8797 10.4658 27.4256 9.01562 27.4256 7.19922V5.96875C27.4256 4.7793 27.6365 3.7334 28.0584 2.83105C28.4861 1.92871 29.0896 1.2373 29.8689 0.756836C30.6482 0.270508 31.5506 0.0273438 32.576 0.0273438C33.9354 0.0273438 35.0252 0.408203 35.8455 1.16992C36.6658 1.92578 37.1434 2.97461 37.2781 4.31641H35.5818C35.4354 3.29688 35.116 2.55859 34.6238 2.10156C34.1375 1.64453 33.4549 1.41602 32.576 1.41602C31.4979 1.41602 30.6512 1.81445 30.0359 2.61133C29.4266 3.4082 29.1219 4.54199 29.1219 6.0127V7.25195C29.1219 8.64062 29.4119 9.74512 29.992 10.5654C30.5721 11.3857 31.3836 11.7959 32.4266 11.7959C33.3641 11.7959 34.0818 11.585 34.5799 11.1631C35.0838 10.7354 35.4178 9.99414 35.5818 8.93945H37.2781Z" fill="white"/>
</svg>
