<svg width="39" height="14" viewBox="0 0 39 14" fill="none" xmlns="http://www.w3.org/2000/svg">
<path d="M9.44824 13H1.06348V11.8311L5.49316 6.90918C6.14941 6.16504 6.60059 5.56152 6.84668 5.09863C7.09863 4.62988 7.22461 4.14648 7.22461 3.64844C7.22461 2.98047 7.02246 2.43262 6.61816 2.00488C6.21387 1.57715 5.6748 1.36328 5.00098 1.36328C4.19238 1.36328 3.5625 1.59473 3.11133 2.05762C2.66602 2.51465 2.44336 3.15332 2.44336 3.97363H0.817383C0.817383 2.7959 1.19531 1.84375 1.95117 1.11719C2.71289 0.390625 3.72949 0.0273438 5.00098 0.0273438C6.19043 0.0273438 7.13086 0.34082 7.82227 0.967773C8.51367 1.58887 8.85938 2.41797 8.85938 3.45508C8.85938 4.71484 8.05664 6.21484 6.45117 7.95508L3.02344 11.6729H9.44824V13ZM20.4557 13H12.0709V11.8311L16.5006 6.90918C17.1568 6.16504 17.608 5.56152 17.8541 5.09863C18.1061 4.62988 18.232 4.14648 18.232 3.64844C18.232 2.98047 18.0299 2.43262 17.6256 2.00488C17.2213 1.57715 16.6822 1.36328 16.0084 1.36328C15.1998 1.36328 14.5699 1.59473 14.1187 2.05762C13.6734 2.51465 13.4508 3.15332 13.4508 3.97363H11.8248C11.8248 2.7959 12.2027 1.84375 12.9586 1.11719C13.7203 0.390625 14.7369 0.0273438 16.0084 0.0273438C17.1979 0.0273438 18.1383 0.34082 18.8297 0.967773C19.5211 1.58887 19.8668 2.41797 19.8668 3.45508C19.8668 4.71484 19.0641 6.21484 17.4586 7.95508L14.0309 11.6729H20.4557V13ZM38.2781 8.93945C38.1199 10.293 37.6189 11.3389 36.7752 12.0771C35.9373 12.8096 34.8211 13.1758 33.4266 13.1758C31.9148 13.1758 30.702 12.6338 29.7879 11.5498C28.8797 10.4658 28.4256 9.01562 28.4256 7.19922V5.96875C28.4256 4.7793 28.6365 3.7334 29.0584 2.83105C29.4861 1.92871 30.0896 1.2373 30.8689 0.756836C31.6482 0.270508 32.5506 0.0273438 33.576 0.0273438C34.9354 0.0273438 36.0252 0.408203 36.8455 1.16992C37.6658 1.92578 38.1434 2.97461 38.2781 4.31641H36.5818C36.4354 3.29688 36.116 2.55859 35.6238 2.10156C35.1375 1.64453 34.4549 1.41602 33.576 1.41602C32.4979 1.41602 31.6512 1.81445 31.0359 2.61133C30.4266 3.4082 30.1219 4.54199 30.1219 6.0127V7.25195C30.1219 8.64062 30.4119 9.74512 30.992 10.5654C31.5721 11.3857 32.3836 11.7959 33.4266 11.7959C34.3641 11.7959 35.0818 11.585 35.5799 11.1631C36.0838 10.7354 36.4178 9.99414 36.5818 8.93945H38.2781Z" fill="white"/>
</svg>
