<svg width="39" height="14" viewBox="0 0 39 14" fill="none" xmlns="http://www.w3.org/2000/svg">
<path d="M9.44824 13H1.06348V11.8311L5.49316 6.90918C6.14941 6.16504 6.60059 5.56152 6.84668 5.09863C7.09863 4.62988 7.22461 4.14648 7.22461 3.64844C7.22461 2.98047 7.02246 2.43262 6.61816 2.00488C6.21387 1.57715 5.6748 1.36328 5.00098 1.36328C4.19238 1.36328 3.5625 1.59473 3.11133 2.05762C2.66602 2.51465 2.44336 3.15332 2.44336 3.97363H0.817383C0.817383 2.7959 1.19531 1.84375 1.95117 1.11719C2.71289 0.390625 3.72949 0.0273438 5.00098 0.0273438C6.19043 0.0273438 7.13086 0.34082 7.82227 0.967773C8.51367 1.58887 8.85938 2.41797 8.85938 3.45508C8.85938 4.71484 8.05664 6.21484 6.45117 7.95508L3.02344 11.6729H9.44824V13ZM19.8316 3.54297C19.8316 4.18164 19.6617 4.75 19.3219 5.24805C18.9879 5.74609 18.5338 6.13574 17.9596 6.41699C18.6275 6.7041 19.1549 7.12305 19.5416 7.67383C19.9342 8.22461 20.1305 8.84863 20.1305 9.5459C20.1305 10.6533 19.7555 11.5352 19.0055 12.1914C18.2613 12.8477 17.2799 13.1758 16.0611 13.1758C14.8307 13.1758 13.8434 12.8477 13.0992 12.1914C12.3609 11.5293 11.9918 10.6475 11.9918 9.5459C11.9918 8.85449 12.1793 8.23047 12.5543 7.67383C12.9352 7.11719 13.4596 6.69531 14.1275 6.4082C13.5592 6.12695 13.1109 5.7373 12.7828 5.23926C12.4547 4.74121 12.2906 4.17578 12.2906 3.54297C12.2906 2.46484 12.6363 1.60938 13.3277 0.976562C14.0191 0.34375 14.9303 0.0273438 16.0611 0.0273438C17.1861 0.0273438 18.0943 0.34375 18.7857 0.976562C19.483 1.60938 19.8316 2.46484 19.8316 3.54297ZM18.5045 9.51074C18.5045 8.7959 18.276 8.21289 17.8189 7.76172C17.3678 7.31055 16.776 7.08496 16.0436 7.08496C15.3111 7.08496 14.7223 7.30762 14.277 7.75293C13.8375 8.19824 13.6178 8.78418 13.6178 9.51074C13.6178 10.2373 13.8316 10.8086 14.2594 11.2246C14.693 11.6406 15.2936 11.8486 16.0611 11.8486C16.8229 11.8486 17.4205 11.6406 17.8541 11.2246C18.2877 10.8027 18.5045 10.2314 18.5045 9.51074ZM16.0611 1.36328C15.4225 1.36328 14.9039 1.5625 14.5055 1.96094C14.1129 2.35352 13.9166 2.88965 13.9166 3.56934C13.9166 4.21973 14.11 4.74707 14.4967 5.15137C14.8893 5.5498 15.4107 5.74902 16.0611 5.74902C16.7115 5.74902 17.2301 5.5498 17.6168 5.15137C18.0094 4.74707 18.2057 4.21973 18.2057 3.56934C18.2057 2.91895 18.0035 2.38867 17.5992 1.97852C17.1949 1.56836 16.6822 1.36328 16.0611 1.36328ZM38.2781 8.93945C38.1199 10.293 37.6189 11.3389 36.7752 12.0771C35.9373 12.8096 34.8211 13.1758 33.4266 13.1758C31.9148 13.1758 30.702 12.6338 29.7879 11.5498C28.8797 10.4658 28.4256 9.01562 28.4256 7.19922V5.96875C28.4256 4.7793 28.6365 3.7334 29.0584 2.83105C29.4861 1.92871 30.0896 1.2373 30.8689 0.756836C31.6482 0.270508 32.5506 0.0273438 33.576 0.0273438C34.9354 0.0273438 36.0252 0.408203 36.8455 1.16992C37.6658 1.92578 38.1434 2.97461 38.2781 4.31641H36.5818C36.4354 3.29688 36.116 2.55859 35.6238 2.10156C35.1375 1.64453 34.4549 1.41602 33.576 1.41602C32.4979 1.41602 31.6512 1.81445 31.0359 2.61133C30.4266 3.4082 30.1219 4.54199 30.1219 6.0127V7.25195C30.1219 8.64062 30.4119 9.74512 30.992 10.5654C31.5721 11.3857 32.3836 11.7959 33.4266 11.7959C34.3641 11.7959 35.0818 11.585 35.5799 11.1631C36.0838 10.7354 36.4178 9.99414 36.5818 8.93945H38.2781Z" fill="white"/>
</svg>
