<svg width="38" height="14" viewBox="0 0 38 14" fill="none" xmlns="http://www.w3.org/2000/svg">
<path d="M3.15039 5.81055H4.37207C5.13965 5.79883 5.74316 5.59668 6.18262 5.2041C6.62207 4.81152 6.8418 4.28125 6.8418 3.61328C6.8418 2.11328 6.09473 1.36328 4.60059 1.36328C3.89746 1.36328 3.33496 1.56543 2.91309 1.96973C2.49707 2.36816 2.28906 2.89844 2.28906 3.56055H0.663086C0.663086 2.54688 1.03223 1.70605 1.77051 1.03809C2.51465 0.364258 3.45801 0.0273438 4.60059 0.0273438C5.80762 0.0273438 6.75391 0.34668 7.43945 0.985352C8.125 1.62402 8.46777 2.51172 8.46777 3.64844C8.46777 4.20508 8.28613 4.74414 7.92285 5.26562C7.56543 5.78711 7.07617 6.17676 6.45508 6.43457C7.1582 6.65723 7.7002 7.02637 8.08105 7.54199C8.46777 8.05762 8.66113 8.6875 8.66113 9.43164C8.66113 10.5801 8.28613 11.4912 7.53613 12.165C6.78613 12.8389 5.81055 13.1758 4.60938 13.1758C3.4082 13.1758 2.42969 12.8506 1.67383 12.2002C0.923828 11.5498 0.548828 10.6914 0.548828 9.625H2.18359C2.18359 10.2988 2.40332 10.8379 2.84277 11.2422C3.28223 11.6465 3.87109 11.8486 4.60938 11.8486C5.39453 11.8486 5.99512 11.6436 6.41113 11.2334C6.82715 10.8232 7.03516 10.2344 7.03516 9.4668C7.03516 8.72266 6.80664 8.15137 6.34961 7.75293C5.89258 7.35449 5.2334 7.14941 4.37207 7.1377H3.15039V5.81055ZM20.1783 13H11.7936V11.8311L16.2232 6.90918C16.8795 6.16504 17.3307 5.56152 17.5768 5.09863C17.8287 4.62988 17.9547 4.14648 17.9547 3.64844C17.9547 2.98047 17.7525 2.43262 17.3482 2.00488C16.9439 1.57715 16.4049 1.36328 15.7311 1.36328C14.9225 1.36328 14.2926 1.59473 13.8414 2.05762C13.3961 2.51465 13.1734 3.15332 13.1734 3.97363H11.5475C11.5475 2.7959 11.9254 1.84375 12.6812 1.11719C13.443 0.390625 14.4596 0.0273438 15.7311 0.0273438C16.9205 0.0273438 17.8609 0.34082 18.5523 0.967773C19.2437 1.58887 19.5895 2.41797 19.5895 3.45508C19.5895 4.71484 18.7867 6.21484 17.1812 7.95508L13.7535 11.6729H20.1783V13ZM38.0008 8.93945C37.8426 10.293 37.3416 11.3389 36.4979 12.0771C35.66 12.8096 34.5438 13.1758 33.1492 13.1758C31.6375 13.1758 30.4246 12.6338 29.5105 11.5498C28.6023 10.4658 28.1482 9.01562 28.1482 7.19922V5.96875C28.1482 4.7793 28.3592 3.7334 28.7811 2.83105C29.2088 1.92871 29.8123 1.2373 30.5916 0.756836C31.3709 0.270508 32.2732 0.0273438 33.2986 0.0273438C34.658 0.0273438 35.7479 0.408203 36.5682 1.16992C37.3885 1.92578 37.866 2.97461 38.0008 4.31641H36.3045C36.158 3.29688 35.8387 2.55859 35.3465 2.10156C34.8602 1.64453 34.1775 1.41602 33.2986 1.41602C32.2205 1.41602 31.3738 1.81445 30.7586 2.61133C30.1492 3.4082 29.8445 4.54199 29.8445 6.0127V7.25195C29.8445 8.64062 30.1346 9.74512 30.7146 10.5654C31.2947 11.3857 32.1063 11.7959 33.1492 11.7959C34.0867 11.7959 34.8045 11.585 35.3025 11.1631C35.8064 10.7354 36.1404 9.99414 36.3045 8.93945H38.0008Z" fill="white"/>
</svg>
