<svg width="38" height="14" viewBox="0 0 38 14" fill="none" xmlns="http://www.w3.org/2000/svg">
<path d="M3.05273 5.81055H4.27441C5.04199 5.79883 5.64551 5.59668 6.08496 5.2041C6.52441 4.81152 6.74414 4.28125 6.74414 3.61328C6.74414 2.11328 5.99707 1.36328 4.50293 1.36328C3.7998 1.36328 3.2373 1.56543 2.81543 1.96973C2.39941 2.36816 2.19141 2.89844 2.19141 3.56055H0.56543C0.56543 2.54688 0.93457 1.70605 1.67285 1.03809C2.41699 0.364258 3.36035 0.0273438 4.50293 0.0273438C5.70996 0.0273438 6.65625 0.34668 7.3418 0.985352C8.02734 1.62402 8.37012 2.51172 8.37012 3.64844C8.37012 4.20508 8.18848 4.74414 7.8252 5.26562C7.46777 5.78711 6.97852 6.17676 6.35742 6.43457C7.06055 6.65723 7.60254 7.02637 7.9834 7.54199C8.37012 8.05762 8.56348 8.6875 8.56348 9.43164C8.56348 10.5801 8.18848 11.4912 7.43848 12.165C6.68848 12.8389 5.71289 13.1758 4.51172 13.1758C3.31055 13.1758 2.33203 12.8506 1.57617 12.2002C0.826172 11.5498 0.451172 10.6914 0.451172 9.625H2.08594C2.08594 10.2988 2.30566 10.8379 2.74512 11.2422C3.18457 11.6465 3.77344 11.8486 4.51172 11.8486C5.29688 11.8486 5.89746 11.6436 6.31348 11.2334C6.72949 10.8232 6.9375 10.2344 6.9375 9.4668C6.9375 8.72266 6.70898 8.15137 6.25195 7.75293C5.79492 7.35449 5.13574 7.14941 4.27441 7.1377H3.05273V5.81055ZM14.0602 5.81055H15.2818C16.0494 5.79883 16.6529 5.59668 17.0924 5.2041C17.5318 4.81152 17.7516 4.28125 17.7516 3.61328C17.7516 2.11328 17.0045 1.36328 15.5104 1.36328C14.8072 1.36328 14.2447 1.56543 13.8229 1.96973C13.4068 2.36816 13.1988 2.89844 13.1988 3.56055H11.5729C11.5729 2.54688 11.942 1.70605 12.6803 1.03809C13.4244 0.364258 14.3678 0.0273438 15.5104 0.0273438C16.7174 0.0273438 17.6637 0.34668 18.3492 0.985352C19.0348 1.62402 19.3775 2.51172 19.3775 3.64844C19.3775 4.20508 19.1959 4.74414 18.8326 5.26562C18.4752 5.78711 17.9859 6.17676 17.3648 6.43457C18.068 6.65723 18.61 7.02637 18.9908 7.54199C19.3775 8.05762 19.5709 8.6875 19.5709 9.43164C19.5709 10.5801 19.1959 11.4912 18.4459 12.165C17.6959 12.8389 16.7203 13.1758 15.5191 13.1758C14.318 13.1758 13.3395 12.8506 12.5836 12.2002C11.8336 11.5498 11.4586 10.6914 11.4586 9.625H13.0934C13.0934 10.2988 13.3131 10.8379 13.7525 11.2422C14.192 11.6465 14.7809 11.8486 15.5191 11.8486C16.3043 11.8486 16.9049 11.6436 17.3209 11.2334C17.7369 10.8232 17.9449 10.2344 17.9449 9.4668C17.9449 8.72266 17.7164 8.15137 17.2594 7.75293C16.8023 7.35449 16.1432 7.14941 15.2818 7.1377H14.0602V5.81055ZM37.9031 8.93945C37.7449 10.293 37.2439 11.3389 36.4002 12.0771C35.5623 12.8096 34.4461 13.1758 33.0516 13.1758C31.5398 13.1758 30.327 12.6338 29.4129 11.5498C28.5047 10.4658 28.0506 9.01562 28.0506 7.19922V5.96875C28.0506 4.7793 28.2615 3.7334 28.6834 2.83105C29.1111 1.92871 29.7146 1.2373 30.4939 0.756836C31.2732 0.270508 32.1756 0.0273438 33.201 0.0273438C34.5604 0.0273438 35.6502 0.408203 36.4705 1.16992C37.2908 1.92578 37.7684 2.97461 37.9031 4.31641H36.2068C36.0604 3.29688 35.741 2.55859 35.2488 2.10156C34.7625 1.64453 34.0799 1.41602 33.201 1.41602C32.1229 1.41602 31.2762 1.81445 30.6609 2.61133C30.0516 3.4082 29.7469 4.54199 29.7469 6.0127V7.25195C29.7469 8.64062 30.0369 9.74512 30.617 10.5654C31.1971 11.3857 32.0086 11.7959 33.0516 11.7959C33.9891 11.7959 34.7068 11.585 35.2049 11.1631C35.7088 10.7354 36.0428 9.99414 36.2068 8.93945H37.9031Z" fill="white"/>
</svg>
