<svg width="21" height="14" viewBox="0 0 21 14" fill="none" xmlns="http://www.w3.org/2000/svg">
<path d="M0.675391 6.58398L1.32578 0.203125H7.88242V1.70605H2.70566L2.31895 5.19531C2.9459 4.82617 3.65781 4.6416 4.45469 4.6416C5.6207 4.6416 6.54648 5.02832 7.23203 5.80176C7.91758 6.56934 8.26035 7.60938 8.26035 8.92188C8.26035 10.2402 7.90293 11.2803 7.18809 12.042C6.4791 12.7979 5.48594 13.1758 4.20859 13.1758C3.07773 13.1758 2.15488 12.8623 1.44004 12.2354C0.725195 11.6084 0.317969 10.7412 0.218359 9.63379H1.75645C1.85605 10.3662 2.1168 10.9199 2.53867 11.2949C2.96055 11.6641 3.51719 11.8486 4.20859 11.8486C4.96445 11.8486 5.55625 11.5908 5.98398 11.0752C6.41758 10.5596 6.63438 9.84766 6.63438 8.93945C6.63438 8.08398 6.4 7.39844 5.93125 6.88281C5.46836 6.36133 4.8502 6.10059 4.07676 6.10059C3.36777 6.10059 2.81113 6.25586 2.40684 6.56641L1.97617 6.91797L0.675391 6.58398ZM20.7707 8.93945C20.6125 10.293 20.1115 11.3389 19.2678 12.0771C18.4299 12.8096 17.3137 13.1758 15.9191 13.1758C14.4074 13.1758 13.1945 12.6338 12.2805 11.5498C11.3723 10.4658 10.9182 9.01562 10.9182 7.19922V5.96875C10.9182 4.7793 11.1291 3.7334 11.551 2.83105C11.9787 1.92871 12.5822 1.2373 13.3615 0.756836C14.1408 0.270508 15.0432 0.0273438 16.0686 0.0273438C17.4279 0.0273438 18.5178 0.408203 19.3381 1.16992C20.1584 1.92578 20.6359 2.97461 20.7707 4.31641H19.0744C18.9279 3.29688 18.6086 2.55859 18.1164 2.10156C17.6301 1.64453 16.9475 1.41602 16.0686 1.41602C14.9904 1.41602 14.1437 1.81445 13.5285 2.61133C12.9191 3.4082 12.6145 4.54199 12.6145 6.0127V7.25195C12.6145 8.64062 12.9045 9.74512 13.4846 10.5654C14.0646 11.3857 14.8762 11.7959 15.9191 11.7959C16.8566 11.7959 17.5744 11.585 18.0725 11.1631C18.5764 10.7354 18.9104 9.99414 19.0744 8.93945H20.7707Z" fill="white"/>
</svg>
