<svg width="28" height="14" viewBox="0 0 28 14" fill="none" xmlns="http://www.w3.org/2000/svg">
<path d="M8.81406 3.54297C8.81406 4.18164 8.64414 4.75 8.3043 5.24805C7.97031 5.74609 7.51621 6.13574 6.94199 6.41699C7.60996 6.7041 8.1373 7.12305 8.52402 7.67383C8.9166 8.22461 9.11289 8.84863 9.11289 9.5459C9.11289 10.6533 8.73789 11.5352 7.98789 12.1914C7.24375 12.8477 6.2623 13.1758 5.04355 13.1758C3.81309 13.1758 2.82578 12.8477 2.08164 12.1914C1.34336 11.5293 0.974219 10.6475 0.974219 9.5459C0.974219 8.85449 1.16172 8.23047 1.53672 7.67383C1.91758 7.11719 2.44199 6.69531 3.10996 6.4082C2.5416 6.12695 2.09336 5.7373 1.76523 5.23926C1.43711 4.74121 1.27305 4.17578 1.27305 3.54297C1.27305 2.46484 1.61875 1.60938 2.31016 0.976562C3.00156 0.34375 3.9127 0.0273438 5.04355 0.0273438C6.16855 0.0273438 7.07676 0.34375 7.76816 0.976562C8.46543 1.60938 8.81406 2.46484 8.81406 3.54297ZM7.48691 9.51074C7.48691 8.7959 7.2584 8.21289 6.80137 7.76172C6.3502 7.31055 5.7584 7.08496 5.02598 7.08496C4.29355 7.08496 3.70469 7.30762 3.25938 7.75293C2.81992 8.19824 2.6002 8.78418 2.6002 9.51074C2.6002 10.2373 2.81406 10.8086 3.2418 11.2246C3.67539 11.6406 4.27598 11.8486 5.04355 11.8486C5.80527 11.8486 6.40293 11.6406 6.83652 11.2246C7.27012 10.8027 7.48691 10.2314 7.48691 9.51074ZM5.04355 1.36328C4.40488 1.36328 3.88633 1.5625 3.48789 1.96094C3.09531 2.35352 2.89902 2.88965 2.89902 3.56934C2.89902 4.21973 3.09238 4.74707 3.4791 5.15137C3.87168 5.5498 4.39316 5.74902 5.04355 5.74902C5.69395 5.74902 6.2125 5.5498 6.59922 5.15137C6.9918 4.74707 7.18809 4.21973 7.18809 3.56934C7.18809 2.91895 6.98594 2.38867 6.58164 1.97852C6.17734 1.56836 5.66465 1.36328 5.04355 1.36328ZM27.2605 8.93945C27.1023 10.293 26.6014 11.3389 25.7576 12.0771C24.9197 12.8096 23.8035 13.1758 22.409 13.1758C20.8973 13.1758 19.6844 12.6338 18.7703 11.5498C17.8621 10.4658 17.408 9.01562 17.408 7.19922V5.96875C17.408 4.7793 17.6189 3.7334 18.0408 2.83105C18.4686 1.92871 19.0721 1.2373 19.8514 0.756836C20.6307 0.270508 21.533 0.0273438 22.5584 0.0273438C23.9178 0.0273438 25.0076 0.408203 25.8279 1.16992C26.6482 1.92578 27.1258 2.97461 27.2605 4.31641H25.5643C25.4178 3.29688 25.0984 2.55859 24.6063 2.10156C24.1199 1.64453 23.4373 1.41602 22.5584 1.41602C21.4803 1.41602 20.6336 1.81445 20.0184 2.61133C19.409 3.4082 19.1043 4.54199 19.1043 6.0127V7.25195C19.1043 8.64062 19.3943 9.74512 19.9744 10.5654C20.5545 11.3857 21.366 11.7959 22.409 11.7959C23.3465 11.7959 24.0643 11.585 24.5623 11.1631C25.0662 10.7354 25.4002 9.99414 25.5643 8.93945H27.2605Z" fill="white"/>
</svg>
