<!-- Generated by IcoMoon.io -->
<svg version="1.1" xmlns="http://www.w3.org/2000/svg" width="32" height="32" viewBox="0 0 32 32">
<title>Group-15</title>
<path fill="#efeef3" d="M4.211 0h23.579c2.325 0 4.211 1.885 4.211 4.211v23.579c0 2.325-1.885 4.211-4.211 4.211h-23.579c-2.325 0-4.211-1.885-4.211-4.211v-23.579c0-2.325 1.885-4.211 4.211-4.211z"></path>
<path fill="#3db370" d="M22.69 12.672c0.011 0.15 0.011 0.299 0.011 0.449 0 4.563-3.473 9.821-9.821 9.821-1.956 0-3.772-0.566-5.301-1.549 0.278 0.032 0.545 0.043 0.834 0.043 1.614 0 3.099-0.545 4.285-1.475-1.518-0.032-2.789-1.026-3.227-2.394 0.214 0.032 0.427 0.053 0.652 0.053 0.31 0 0.62-0.043 0.908-0.117-1.582-0.321-2.768-1.71-2.768-3.388v-0.043c0.46 0.256 0.994 0.417 1.56 0.438-0.93-0.62-1.539-1.678-1.539-2.875 0-0.641 0.171-1.229 0.47-1.742 1.699 2.095 4.253 3.462 7.117 3.612-0.053-0.256-0.086-0.524-0.086-0.791 0-1.902 1.539-3.452 3.452-3.452 0.994 0 1.892 0.417 2.522 1.090 0.78-0.15 1.528-0.438 2.191-0.834-0.256 0.802-0.802 1.475-1.518 1.902 0.695-0.075 1.368-0.267 1.988-0.534-0.47 0.684-1.058 1.293-1.731 1.785z"></path>
</svg>
