<!-- Generated by IcoMoon.io -->
<svg version="1.1" xmlns="http://www.w3.org/2000/svg" width="32" height="32" viewBox="0 0 32 32">
<title>Group-12</title>
<path fill="#efeef3" d="M4.211 0h23.579c2.325 0 4.211 1.885 4.211 4.211v23.579c0 2.325-1.885 4.211-4.211 4.211h-23.579c-2.325 0-4.211-1.885-4.211-4.211v-23.579c0-2.325 1.885-4.211 4.211-4.211z"></path>
<path fill="#0d0d0d" d="M19.659 17.265l0.437-2.845h-2.73v-1.847c0-0.778 0.381-1.537 1.604-1.537h1.241v-2.423c0 0-1.126-0.192-2.203-0.192-2.248 0-3.718 1.363-3.718 3.83v2.169h-2.499v2.845h2.499v6.879h3.076v-6.879h2.294z"></path>
</svg>
