<!-- Generated by IcoMoon.io -->
<svg version="1.1" xmlns="http://www.w3.org/2000/svg" width="32" height="32" viewBox="0 0 32 32">
<title>Group-14</title>
<path fill="#efeef3" d="M4.211 0h23.579c2.325 0 4.211 1.885 4.211 4.211v23.579c0 2.325-1.885 4.211-4.211 4.211h-23.579c-2.325 0-4.211-1.885-4.211-4.211v-23.579c0-2.325 1.885-4.211 4.211-4.211z"></path>
<path fill="#0d0d0d" d="M15.737 7.579c-4.498 0-8.158 3.66-8.158 8.158s3.66 8.158 8.158 8.158c4.498 0 8.158-3.66 8.158-8.158s-3.66-8.158-8.158-8.158zM21.131 11.341c0.97 1.186 1.558 2.696 1.573 4.341-0.23-0.049-2.533-0.516-4.852-0.224-0.189-0.462-0.368-0.868-0.612-1.369 2.576-1.052 3.744-2.549 3.891-2.747zM20.356 10.535c-0.125 0.179-1.174 1.588-3.652 2.517-1.142-2.098-2.407-3.821-2.6-4.079 2.21-0.533 4.538 0.042 6.252 1.562zM12.774 9.441c0.184 0.252 1.429 1.978 2.583 4.030-3.259 0.866-6.13 0.853-6.442 0.849 0.452-2.162 1.909-3.959 3.858-4.879zM8.769 15.747c0-0.071 0.001-0.142 0.004-0.213 0.305 0.006 3.682 0.050 7.161-0.992 0.199 0.39 0.39 0.787 0.565 1.182-2.52 0.71-4.809 2.748-5.939 4.681-1.113-1.235-1.791-2.869-1.791-4.659zM11.46 21.245c0.728-1.488 2.703-3.409 5.512-4.367 0.978 2.542 1.383 4.673 1.486 5.284-2.241 0.954-4.935 0.693-6.999-0.917zM19.63 21.524c-0.071-0.424-0.442-2.464-1.354-4.968 2.184-0.349 4.102 0.223 4.34 0.298-0.311 1.939-1.424 3.613-2.987 4.67z"></path>
</svg>
