<svg width="21" height="20" viewBox="0 0 21 20" fill="none" xmlns="http://www.w3.org/2000/svg">
<path d="M9.37679 0.85958C9.67663 -0.0606967 10.9785 -0.0606959 11.2784 0.859581L13.0295 6.23398C13.1636 6.64561 13.5474 6.92418 13.9803 6.92418H19.641C20.6104 6.92418 21.0128 8.16521 20.2278 8.73398L15.6529 12.0486C15.3014 12.3033 15.1544 12.7555 15.2888 13.1682L17.0374 18.5349C17.3374 19.4557 16.2841 20.2227 15.4999 19.6544L10.9143 16.3321C10.5643 16.0784 10.0909 16.0784 9.74087 16.3321L5.15532 19.6544C4.37107 20.2227 3.31778 19.4557 3.6178 18.5348L5.36637 13.1682C5.50083 12.7555 5.35375 12.3033 5.00229 12.0486L0.427413 8.73398C-0.357594 8.16521 0.0447371 6.92418 1.01413 6.92418H6.67489C7.10781 6.92418 7.49157 6.64561 7.62569 6.23398L9.37679 0.85958Z" fill="#070707"/>
</svg>
